<mxfile host="app.diagrams.net" modified="2024-01-08T13:35:36.595Z" agent="Mozilla/5.0 (Macintosh; Intel Mac OS X 10_15_7) AppleWebKit/537.36 (KHTML, like Gecko) Chrome/120.0.0.0 Safari/537.36" etag="xwSa8bWc_kXqMg10UEHC" version="22.1.17" type="device">
  <diagram name="Page-1" id="B2i92tcj9kQJjoBmEVRF">
    <mxGraphModel dx="658" dy="418" grid="1" gridSize="10" guides="1" tooltips="1" connect="1" arrows="1" fold="1" page="1" pageScale="1" pageWidth="827" pageHeight="1169" math="0" shadow="0">
      <root>
        <mxCell id="0" />
        <mxCell id="1" parent="0" />
        <mxCell id="uSj3emTWA3s2GXRi0EhX-19" value="" style="rounded=0;whiteSpace=wrap;html=1;strokeColor=none;" vertex="1" parent="1">
          <mxGeometry x="350" y="81.25" width="453" height="250" as="geometry" />
        </mxCell>
        <mxCell id="Poqv3Z_RuK3P6okCBcd1-2" value="" style="shape=image;verticalLabelPosition=bottom;labelBackgroundColor=default;verticalAlign=top;aspect=fixed;imageAspect=0;image=data:image/svg+xml,PHN2ZyB4bWxucz0iaHR0cDovL3d3dy53My5vcmcvMjAwMC9zdmciIHZpZXdCb3g9IjAgMCAzMiAzMiIgaGVpZ2h0PSI2NCIgd2lkdGg9IjY0Ij48cGF0aCBmaWxsPSIjZjAzYzJlIiBkPSJNMzEuMzk2IDE0LjU3NUwxNy40MjUuNjA0YTIuMDYgMi4wNiAwIDAgMC0yLjkxNCAwbC0yLjkgMi45IDMuNjggMy42OGMuODU2LS4zIDEuODM2LS4wOTUgMi41MTguNTg3YTIuNDUgMi40NSAwIDAgMSAuNTgxIDIuNTMzbDMuNTQ3IDMuNTQ3Yy44NTgtLjI5NiAxLjg0OC0uMTA1IDIuNTMzLjU4MmEyLjQ1IDIuNDUgMCAxIDEtMy40NjkgMy40NjhjLS43Mi0uNzItLjg5OC0xLjc4LS41MzQtMi42NjdsLTMuMzA4LTMuMzA4djguNzA1YTIuNSAyLjUgMCAwIDEgLjY1LjQ2NCAyLjQ1IDIuNDUgMCAxIDEtMy40NjggMy40NjggMi40NSAyLjQ1IDAgMCAxIDAtMy40NjhjLjIzNy0uMjM2LjUtLjQxNS44MDMtLjUzNXYtOC43ODZjLS4yOTItLjEyLS41NjYtLjI5Ny0uODAzLS41MzVhMi40NSAyLjQ1IDAgMCAxLS41MjgtMi42ODFsLTMuNjMtMy42MjgtOS41OCA5LjU3YTIuMDYgMi4wNiAwIDAgMCAwIDIuOTE1bDEzLjk3MiAxMy45N2EyLjA2IDIuMDYgMCAwIDAgMi45MTQgMEwzMS4zOTYgMTcuNWEyLjA2IDIuMDYgMCAwIDAgMC0yLjkxNSIvPjwvc3ZnPg==;movable=0;resizable=0;rotatable=0;deletable=0;editable=0;locked=1;connectable=0;" parent="1" vertex="1">
          <mxGeometry x="394.5" y="226.25" width="34" height="34" as="geometry" />
        </mxCell>
        <mxCell id="Poqv3Z_RuK3P6okCBcd1-107" style="edgeStyle=orthogonalEdgeStyle;rounded=0;orthogonalLoop=1;jettySize=auto;html=1;entryX=0;entryY=0.5;entryDx=0;entryDy=0;movable=0;resizable=0;rotatable=0;deletable=0;editable=0;locked=1;connectable=0;" parent="1" target="Poqv3Z_RuK3P6okCBcd1-2" edge="1">
          <mxGeometry relative="1" as="geometry">
            <mxPoint x="373.95669291338584" y="194.75" as="sourcePoint" />
            <mxPoint x="393.5" y="243.25" as="targetPoint" />
            <Array as="points">
              <mxPoint x="373.5" y="243.25" />
            </Array>
          </mxGeometry>
        </mxCell>
        <mxCell id="uSj3emTWA3s2GXRi0EhX-21" value="&lt;font style=&quot;font-size: 8px;&quot;&gt;push&lt;/font&gt;" style="edgeLabel;html=1;align=center;verticalAlign=middle;resizable=0;points=[];movable=0;rotatable=0;deletable=0;editable=0;locked=1;connectable=0;" vertex="1" connectable="0" parent="Poqv3Z_RuK3P6okCBcd1-107">
          <mxGeometry x="-0.3643" relative="1" as="geometry">
            <mxPoint as="offset" />
          </mxGeometry>
        </mxCell>
        <mxCell id="uSj3emTWA3s2GXRi0EhX-22" style="edgeStyle=orthogonalEdgeStyle;rounded=0;orthogonalLoop=1;jettySize=auto;html=1;entryX=0;entryY=0.5;entryDx=0;entryDy=0;movable=0;resizable=0;rotatable=0;deletable=0;editable=0;locked=1;connectable=0;" edge="1" parent="1" source="Poqv3Z_RuK3P6okCBcd1-3" target="Poqv3Z_RuK3P6okCBcd1-4">
          <mxGeometry relative="1" as="geometry">
            <Array as="points">
              <mxPoint x="375" y="127" />
              <mxPoint x="394" y="127" />
            </Array>
          </mxGeometry>
        </mxCell>
        <mxCell id="uSj3emTWA3s2GXRi0EhX-23" value="&lt;font style=&quot;font-size: 8px;&quot;&gt;apply&lt;/font&gt;" style="edgeLabel;html=1;align=center;verticalAlign=middle;resizable=0;points=[];movable=0;rotatable=0;deletable=0;editable=0;locked=1;connectable=0;" vertex="1" connectable="0" parent="uSj3emTWA3s2GXRi0EhX-22">
          <mxGeometry x="-0.2791" relative="1" as="geometry">
            <mxPoint as="offset" />
          </mxGeometry>
        </mxCell>
        <mxCell id="Poqv3Z_RuK3P6okCBcd1-3" value="" style="sketch=0;outlineConnect=0;fontColor=#232F3E;gradientColor=none;fillColor=#232F3D;strokeColor=none;dashed=0;verticalLabelPosition=bottom;verticalAlign=top;align=center;html=1;fontSize=12;fontStyle=0;aspect=fixed;pointerEvents=1;shape=mxgraph.aws4.user;movable=0;resizable=0;rotatable=0;deletable=0;editable=0;locked=1;connectable=0;" parent="1" vertex="1">
          <mxGeometry x="362.5" y="169.75" width="25" height="25" as="geometry" />
        </mxCell>
        <mxCell id="Poqv3Z_RuK3P6okCBcd1-4" value="" style="shape=image;verticalLabelPosition=bottom;labelBackgroundColor=default;verticalAlign=top;aspect=fixed;imageAspect=0;image=data:image/svg+xml,PHN2ZyB4bWxucz0iaHR0cDovL3d3dy53My5vcmcvMjAwMC9zdmciIGhlaWdodD0iNjQiIHdpZHRoPSI2NCIgdmlld0JveD0iMCAwIDY0IDY0Ij48c3R5bGU+LkN7ZmlsbC1ydWxlOmV2ZW5vZGR9PC9zdHlsZT48ZyBjbGFzcz0iQyIgdHJhbnNmb3JtPSJtYXRyaXgoLjgyNjc2NyAwIDAgLjgyNjc2NyA4LjQxNjMyMiA1MS4xMzgxNjQpIj48cGF0aCBmaWxsPSIjNWM0ZWU1IiBkPSJNMzkuMSAxNS41NTd2LTI0LjQzbC0yMS4xNi0xMi4yMnYyNC40M3ptMC0yNy4xbC0yMS4xNi0xMi4yMnYtMjQuNDRsMjEuMTYgMTIuMjJ6Ii8+PHBhdGggZmlsbD0iIzQwNDBiMiIgZD0iTTYyLjYtMjMuNzczdi0yNC40NGwtMjEuMTcgMTIuMjJ2MjQuNDR6Ii8+PGcgZmlsbD0iIzVjNGVlNSI+PHBhdGggZD0iTTE1LjYyLTI1LjE5M3YtMjQuNDRsLTIxLjE2LTEyLjIydjI0LjQ0eiIvPjxwYXRoIGQ9Ik01My42NC0uNDgzIi8+PHBhdGggZD0iTTE3Ljk0LTIxLjA5MyIvPjwvZz48L2c+PC9zdmc+;movable=0;resizable=0;rotatable=0;deletable=0;editable=0;locked=1;connectable=0;" parent="1" vertex="1">
          <mxGeometry x="394.5" y="110.25" width="34" height="34" as="geometry" />
        </mxCell>
        <mxCell id="Poqv3Z_RuK3P6okCBcd1-13" value="" style="rounded=0;whiteSpace=wrap;html=1;strokeColor=#5384ed;movable=0;resizable=0;rotatable=0;deletable=0;editable=0;locked=1;connectable=0;" parent="1" vertex="1">
          <mxGeometry x="484.5" y="101.25" width="300" height="210" as="geometry" />
        </mxCell>
        <mxCell id="Poqv3Z_RuK3P6okCBcd1-14" value="" style="shape=image;verticalLabelPosition=bottom;labelBackgroundColor=default;verticalAlign=top;aspect=fixed;imageAspect=0;image=data:image/svg+xml,PHN2ZyB4bWxucz0iaHR0cDovL3d3dy53My5vcmcvMjAwMC9zdmciIGhlaWdodD0iNjQiIHdpZHRoPSI2NCIgdmlld0JveD0iMCAwIDY0IDY0Ij48cGF0aCBmaWxsPSIjZWE0MzM1IiBkPSJNNDAuNzI4IDIwLjQ4OGwyLjA1LjAzNSA1LjU3LTUuNTcuMjctMi4zNkM0NC4yIDguNjU3IDM4LjM2NyA2LjI2IDMxLjk5MyA2LjI2Yy0xMS41NCAwLTIxLjI4IDcuODUyLTI0LjE2MyAxOC40ODguNjA4LS40MjQgMS45MDgtLjEwNiAxLjkwOC0uMTA2bDExLjEzLTEuODNzLjU3Mi0uOTQ3Ljg2Mi0uOUExMy44OCAxMy44OCAwIDAgMSAzMiAxNy4zNzVjMy4zLjAwNyA2LjM0IDEuMTczIDguNzI4IDMuMTAyeiIvPjxwYXRoIGZpbGw9IiM0Mjg1ZjQiIGQ9Ik01Ni4xNyAyNC43N2MtMS4yOTMtNC43Ny0zLjk1OC04Ljk4Mi03LjU1NS0xMi4xNzdsLTcuODg3IDcuODg3YzMuMTYgMi41NSA1LjE4NyA2LjQ1MiA1LjE4NyAxMC44MnYxLjM5MmMzLjgzNyAwIDYuOTU0IDMuMTI0IDYuOTU0IDYuOTU0IDAgMy44MzctMy4xMjQgNi45NTQtNi45NTQgNi45NTRIMzIuMDA3TDMwLjYxNSA0OHY4LjM0NmwxLjM5MiAxLjM4NWgxMy45MDhBMTguMTEgMTguMTEgMCAwIDAgNjQgMzkuNjQ3Yy0uMDA3LTYuMTU1LTMuMS0xMS42LTcuODMtMTQuODc2eiIvPjxwYXRoIGZpbGw9IiMzNGE4NTMiIGQ9Ik0xOC4wODUgNTcuNzRoMTMuOVY0Ni42aC0xMy45YTYuODkgNi44OSAwIDAgMS0yLjg2Mi0uNjIybC0yLjAwNy42MTUtNS41NyA1LjU3LS40ODggMS44OGExOCAxOCAwIDAgMCAxMC45MjYgMy42ODl6Ii8+PHBhdGggZmlsbD0iI2ZiYmMwNSIgZD0iTTE4LjA4NSAyMS41N0ExOC4xMSAxOC4xMSAwIDAgMCAwIDM5LjY1NGMwIDUuODczIDIuODEzIDExLjA5NSA3LjE2NiAxNC40MDNsOC4wNjQtOC4wNjRhNi45NiA2Ljk2IDAgMCAxLTQuMDk5LTYuMzM5YzAtMy44MzcgMy4xMjQtNi45NTQgNi45NTQtNi45NTQgMi44MiAwIDUuMjQ0IDEuNyA2LjM0IDQuMWw4LjA2NC04LjA2NGMtMy4zMDctNC4zNTMtOC41My03LjE2Ni0xNC40MDMtNy4xNjZ6Ii8+PC9zdmc+;movable=0;resizable=0;rotatable=0;deletable=0;editable=0;locked=1;connectable=0;" parent="1" vertex="1">
          <mxGeometry x="492.5" y="106.25" width="15" height="15" as="geometry" />
        </mxCell>
        <mxCell id="Poqv3Z_RuK3P6okCBcd1-15" value="&lt;font style=&quot;font-size: 10px;&quot;&gt;GCP Project&lt;/font&gt;" style="text;html=1;strokeColor=none;fillColor=none;align=center;verticalAlign=middle;whiteSpace=wrap;rounded=0;fontSize=11;movable=0;resizable=0;rotatable=0;deletable=0;editable=0;locked=1;connectable=0;" parent="1" vertex="1">
          <mxGeometry x="507.5" y="98.75" width="70" height="30" as="geometry" />
        </mxCell>
        <mxCell id="Poqv3Z_RuK3P6okCBcd1-19" value="" style="rounded=0;whiteSpace=wrap;html=1;movable=0;resizable=0;rotatable=0;deletable=0;editable=0;locked=1;connectable=0;" parent="1" vertex="1">
          <mxGeometry x="492.5" y="128.25" width="284" height="116" as="geometry" />
        </mxCell>
        <mxCell id="Poqv3Z_RuK3P6okCBcd1-21" value="" style="rounded=0;whiteSpace=wrap;html=1;strokeColor=#999999;movable=0;resizable=0;rotatable=0;deletable=0;editable=0;locked=1;connectable=0;" parent="1" vertex="1">
          <mxGeometry x="504.5" y="151.25" width="100" height="69" as="geometry" />
        </mxCell>
        <mxCell id="Poqv3Z_RuK3P6okCBcd1-24" value="&lt;font color=&quot;#999999&quot; style=&quot;font-size: 8px;&quot;&gt;ns: argo&lt;/font&gt;" style="text;html=1;strokeColor=none;fillColor=none;align=left;verticalAlign=middle;whiteSpace=wrap;rounded=0;fontSize=11;movable=0;resizable=0;rotatable=0;deletable=0;editable=0;locked=1;connectable=0;" parent="1" vertex="1">
          <mxGeometry x="514" y="144.25" width="100" height="30" as="geometry" />
        </mxCell>
        <mxCell id="Poqv3Z_RuK3P6okCBcd1-34" value="&lt;font style=&quot;font-size: 9px;&quot;&gt;GKE Cluster&lt;/font&gt;" style="text;html=1;strokeColor=none;fillColor=none;align=center;verticalAlign=middle;whiteSpace=wrap;rounded=0;movable=0;resizable=0;rotatable=0;deletable=0;editable=0;locked=1;connectable=0;" parent="1" vertex="1">
          <mxGeometry x="511.5" y="124.25" width="60" height="30" as="geometry" />
        </mxCell>
        <mxCell id="Poqv3Z_RuK3P6okCBcd1-38" value="" style="endArrow=classic;html=1;rounded=0;exitX=1;exitY=0.5;exitDx=0;exitDy=0;entryX=0;entryY=0.121;entryDx=0;entryDy=0;entryPerimeter=0;strokeColor=#5384ED;movable=0;resizable=0;rotatable=0;deletable=0;editable=0;locked=1;connectable=0;" parent="1" source="Poqv3Z_RuK3P6okCBcd1-4" target="Poqv3Z_RuK3P6okCBcd1-13" edge="1">
          <mxGeometry width="50" height="50" relative="1" as="geometry">
            <mxPoint x="354.5" y="241.25" as="sourcePoint" />
            <mxPoint x="404.5" y="191.25" as="targetPoint" />
          </mxGeometry>
        </mxCell>
        <mxCell id="Poqv3Z_RuK3P6okCBcd1-104" value="&lt;font style=&quot;font-size: 8px;&quot;&gt;build&lt;br&gt;infra&lt;/font&gt;" style="edgeLabel;html=1;align=center;verticalAlign=middle;resizable=0;points=[];movable=0;rotatable=0;deletable=0;editable=0;locked=1;connectable=0;" parent="Poqv3Z_RuK3P6okCBcd1-38" vertex="1" connectable="0">
          <mxGeometry x="-0.1728" relative="1" as="geometry">
            <mxPoint as="offset" />
          </mxGeometry>
        </mxCell>
        <mxCell id="Poqv3Z_RuK3P6okCBcd1-68" value="" style="rounded=0;whiteSpace=wrap;html=1;strokeColor=#999999;movable=0;resizable=0;rotatable=0;deletable=0;editable=0;locked=1;connectable=0;" parent="1" vertex="1">
          <mxGeometry x="664.5" y="151.25" width="100" height="69" as="geometry" />
        </mxCell>
        <mxCell id="Poqv3Z_RuK3P6okCBcd1-60" value="&lt;font color=&quot;#999999&quot; style=&quot;font-size: 8px;&quot;&gt;ns: default&lt;/font&gt;" style="text;html=1;strokeColor=none;fillColor=none;align=center;verticalAlign=middle;whiteSpace=wrap;rounded=0;fontSize=11;movable=0;resizable=0;rotatable=0;deletable=0;editable=0;locked=1;connectable=0;" parent="1" vertex="1">
          <mxGeometry x="643.5" y="144.25" width="100" height="30" as="geometry" />
        </mxCell>
        <mxCell id="Poqv3Z_RuK3P6okCBcd1-46" value="&lt;font style=&quot;font-size: 8px;&quot;&gt;&lt;b&gt;Continuous Integration&lt;/b&gt;&lt;/font&gt;" style="text;html=1;strokeColor=none;fillColor=none;align=center;verticalAlign=middle;whiteSpace=wrap;rounded=0;movable=0;resizable=0;rotatable=0;deletable=0;editable=0;locked=1;connectable=0;" parent="1" vertex="1">
          <mxGeometry x="598.5" y="244.25" width="60" height="30" as="geometry" />
        </mxCell>
        <mxCell id="Poqv3Z_RuK3P6okCBcd1-75" value="" style="group;movable=0;resizable=0;rotatable=0;deletable=0;editable=0;locked=1;connectable=0;" parent="1" vertex="1" connectable="0">
          <mxGeometry x="508.5" y="260.25" width="90" height="38" as="geometry" />
        </mxCell>
        <mxCell id="Poqv3Z_RuK3P6okCBcd1-73" value="" style="rounded=0;whiteSpace=wrap;html=1;movable=0;resizable=0;rotatable=0;deletable=0;editable=0;locked=1;connectable=0;" parent="Poqv3Z_RuK3P6okCBcd1-75" vertex="1">
          <mxGeometry width="90" height="38" as="geometry" />
        </mxCell>
        <mxCell id="Poqv3Z_RuK3P6okCBcd1-71" value="&lt;font style=&quot;font-size: 8px;&quot;&gt;Cloud Build&lt;/font&gt;" style="text;html=1;strokeColor=none;fillColor=none;align=center;verticalAlign=middle;whiteSpace=wrap;rounded=0;movable=0;resizable=0;rotatable=0;deletable=0;editable=0;locked=1;connectable=0;" parent="Poqv3Z_RuK3P6okCBcd1-75" vertex="1">
          <mxGeometry x="30" y="4" width="60" height="30" as="geometry" />
        </mxCell>
        <mxCell id="Poqv3Z_RuK3P6okCBcd1-28" value="" style="shape=image;verticalLabelPosition=bottom;labelBackgroundColor=default;verticalAlign=top;aspect=fixed;imageAspect=0;image=data:image/svg+xml,PHN2ZyB4bWxucz0iaHR0cDovL3d3dy53My5vcmcvMjAwMC9zdmciIHZpZXdCb3g9IjAgMCAyNCAyNCIgaGVpZ2h0PSI4MDBweCIgd2lkdGg9IjgwMHB4Ij4mI3hhOyYjeGE7PGRlZnM+JiN4YTsmI3hhOzxzdHlsZT4uY2xzLTF7ZmlsbDojNDI4NWY0O30uY2xzLTJ7ZmlsbDojNjY5ZGY2O30uY2xzLTN7ZmlsbDojYWVjYmZhO308L3N0eWxlPiYjeGE7JiN4YTs8L2RlZnM+JiN4YTsmI3hhOzx0aXRsZT5JY29uXzI0cHhfQ2xvdWRCdWlsZF9Db2xvcjwvdGl0bGU+JiN4YTsmI3hhOzxnIGRhdGEtbmFtZT0iUHJvZHVjdCBJY29ucyI+JiN4YTsmI3hhOzxnPiYjeGE7JiN4YTs8Zz4mI3hhOyYjeGE7PGc+JiN4YTsmI3hhOzxwb2x5Z29uIHBvaW50cz0iMTIuMTUgMTYuMjQgMTUuNjcgMTQuMjEgMTUuNjcgMTAuMTUgMTQuNDkgOS40NiAxMC45NyAxNS41NiAxMi4xNSAxNi4yNCIgY2xhc3M9ImNscy0xIi8+JiN4YTsmI3hhOzxwb2x5Z29uIHBvaW50cz0iOC42MyAxMC4xNSA4LjYzIDE0LjIxIDkuODEgMTQuODkgMTMuMzQgOC44IDEyLjE1IDguMTEgOC42MyAxMC4xNSIgY2xhc3M9ImNscy0yIi8+JiN4YTsmI3hhOzwvZz4mI3hhOyYjeGE7PC9nPiYjeGE7JiN4YTs8L2c+JiN4YTsmI3hhOzxwb2x5Z29uIHBvaW50cz0iMTEuNDYgMTcuNDUgNy4yNCAxNS4wMSA3LjI0IDEwLjE1IDMuNDkgNy45OCAzLjQ5IDE3LjE4IDExLjQ2IDIxLjc4IDExLjQ2IDE3LjQ1IiBjbGFzcz0iY2xzLTMiLz4mI3hhOyYjeGE7PHBvbHlnb24gcG9pbnRzPSI3LjkzIDguOTUgMTIuMTUgNi41MSAxNi4zNyA4Ljk1IDIwLjEzIDYuNzggMTIuMTUgMi4xNyA0LjE3IDYuNzggNy45MyA4Ljk1IiBjbGFzcz0iY2xzLTMiLz4mI3hhOyYjeGE7PHBvbHlnb24gcG9pbnRzPSIxNy4wNiAxNS4wMSAxMi44NCAxNy40NSAxMi44NCAyMS43OCAyMC44MiAxNy4xOCAyMC44MiA3Ljk4IDE3LjA2IDEwLjE1IDE3LjA2IDE1LjAxIiBjbGFzcz0iY2xzLTMiLz4mI3hhOyYjeGE7PC9nPiYjeGE7JiN4YTs8L3N2Zz4=;movable=0;resizable=0;rotatable=0;deletable=0;editable=0;locked=1;connectable=0;" parent="Poqv3Z_RuK3P6okCBcd1-75" vertex="1">
          <mxGeometry x="5" y="4" width="30" height="30" as="geometry" />
        </mxCell>
        <mxCell id="Poqv3Z_RuK3P6okCBcd1-76" value="" style="group;movable=0;resizable=0;rotatable=0;deletable=0;editable=0;locked=1;connectable=0;" parent="1" vertex="1" connectable="0">
          <mxGeometry x="658.5" y="260.25" width="110" height="38" as="geometry" />
        </mxCell>
        <mxCell id="Poqv3Z_RuK3P6okCBcd1-74" value="" style="rounded=0;whiteSpace=wrap;html=1;movable=0;resizable=0;rotatable=0;deletable=0;editable=0;locked=1;connectable=0;" parent="Poqv3Z_RuK3P6okCBcd1-76" vertex="1">
          <mxGeometry width="110" height="38" as="geometry" />
        </mxCell>
        <mxCell id="Poqv3Z_RuK3P6okCBcd1-50" value="" style="shape=image;verticalLabelPosition=bottom;labelBackgroundColor=default;verticalAlign=top;aspect=fixed;imageAspect=0;image=data:image/svg+xml,PHN2ZyB4bWxuczp4bGluaz0iaHR0cDovL3d3dy53My5vcmcvMTk5OS94bGluayIgeG1sbnM9Imh0dHA6Ly93d3cudzMub3JnLzIwMDAvc3ZnIiBoZWlnaHQ9IjQ4cHgiIHdpZHRoPSI0OHB4IiB2aWV3Qm94PSIwLDAsMjU2LDI1NiI+PGcgc3R5bGU9Im1peC1ibGVuZC1tb2RlOiBub3JtYWwiIHRleHQtYW5jaG9yPSJub25lIiBmb250LXNpemU9Im5vbmUiIGZvbnQtd2VpZ2h0PSJub25lIiBmb250LWZhbWlseT0ibm9uZSIgc3Ryb2tlLWRhc2hvZmZzZXQ9IjAiIHN0cm9rZS1kYXNoYXJyYXk9IiIgc3Ryb2tlLW1pdGVybGltaXQ9IjEwIiBzdHJva2UtbGluZWpvaW49Im1pdGVyIiBzdHJva2UtbGluZWNhcD0iYnV0dCIgc3Ryb2tlLXdpZHRoPSIxIiBzdHJva2U9Im5vbmUiIGZpbGwtcnVsZT0ibm9uemVybyIgZmlsbD0iIzFkNjNlZCI+PGcgdHJhbnNmb3JtPSJzY2FsZSg1LjMzMzMzLDUuMzMzMzMpIj48cGF0aCBkPSJNNDcuNTI3LDE5Ljg0N2MtMC4xMywtMC4xMDIgLTEuMzQ1LC0xLjAwNyAtMy45MDgsLTEuMDA3Yy0wLjY3NywwLjAwMyAtMS4zNTIsMC4wNiAtMi4wMTksMC4xNzFjLTAuNDk2LC0zLjM1NCAtMy4yMTksLTQuOTMgLTMuMzQ1LC01LjAwM2wtMC42ODgsLTAuMzkybC0wLjQ1MywwLjY0NGMtMC41NjcsMC44NjYgLTEuMDY4LDEuNzYgLTEuMzExLDIuNzYzYy0wLjQ1OSwxLjkxNSAtMC4xOCwzLjcxMyAwLjgwNiw1LjI1Yy0xLjE5MiwwLjY1NSAtMy4yMjMsMC43MTMgLTMuNjA5LDAuNzI3aC0zMS40MThjLTAuODI2LDAuMDAxIC0xLjQ5NiwwLjY2IC0xLjUwMSwxLjQ3NGMtMC4wMzcsMi43MzMgMC4zNTMsNS41NTMgMS4zMDYsOC4xMTljMS4wODksMi44MTggMi43MSw0Ljg5NCA0LjgxOCw2LjE2NGMyLjM2MiwxLjQyNyA2LjIsMi4yNDMgMTAuNTUxLDIuMjQzYzEuOTY1LDAuMDA2IDMuOTI3LC0wLjE2OSA1Ljg1OSwtMC41MjRjMi42ODYsLTAuNDg3IDUuMjcxLC0xLjQxMyA3LjY0NywtMi43NGMxLjk1OCwtMS4xMTkgMy43MiwtMi41NDIgNS4yMTksLTQuMjE1YzIuNTA1LC0yLjc5OCAzLjk5NywtNS45MTMgNS4xMDcsLTguNjgyYzAuMTQ5LDAgMC4yOTgsMCAwLjQ0MiwwYzIuNzQzLDAgNC40MjksLTEuMDgzIDUuMzU5LC0xLjk5YzAuNjE4LC0wLjU3OSAxLjEwMSwtMS4yODQgMS40MTQsLTIuMDY1bDAuMTk3LC0wLjU2OHoiLz48cGF0aCBkPSJNOCwyMmgtM2MtMC41NTIsMCAtMSwtMC40NDggLTEsLTF2LTNjMCwtMC41NTIgMC40NDgsLTEgMSwtMWgzYzAuNTUyLDAgMSwwLjQ0OCAxLDF2M2MwLDAuNTUyIC0wLjQ0OCwxIC0xLDF6Ii8+PHBhdGggZD0iTTE0LDIyaC0zYy0wLjU1MiwwIC0xLC0wLjQ0OCAtMSwtMXYtM2MwLC0wLjU1MiAwLjQ0OCwtMSAxLC0xaDNjMC41NTIsMCAxLDAuNDQ4IDEsMXYzYzAsMC41NTIgLTAuNDQ4LDEgLTEsMXoiLz48cGF0aCBkPSJNMjAsMjJoLTNjLTAuNTUyLDAgLTEsLTAuNDQ4IC0xLC0xdi0zYzAsLTAuNTUyIDAuNDQ4LC0xIDEsLTFoM2MwLjU1MiwwIDEsMC40NDggMSwxdjNjMCwwLjU1MiAtMC40NDgsMSAtMSwxeiIvPjxwYXRoIGQ9Ik0yNiwyMmgtM2MtMC41NTIsMCAtMSwtMC40NDggLTEsLTF2LTNjMCwtMC41NTIgMC40NDgsLTEgMSwtMWgzYzAuNTUyLDAgMSwwLjQ0OCAxLDF2M2MwLDAuNTUyIC0wLjQ0OCwxIC0xLDF6Ii8+PHBhdGggZD0iTTE0LDE2aC0zYy0wLjU1MiwwIC0xLC0wLjQ0OCAtMSwtMXYtM2MwLC0wLjU1MiAwLjQ0OCwtMSAxLC0xaDNjMC41NTIsMCAxLDAuNDQ4IDEsMXYzYzAsMC41NTIgLTAuNDQ4LDEgLTEsMXoiLz48cGF0aCBkPSJNMjAsMTZoLTNjLTAuNTUyLDAgLTEsLTAuNDQ4IC0xLC0xdi0zYzAsLTAuNTUyIDAuNDQ4LC0xIDEsLTFoM2MwLjU1MiwwIDEsMC40NDggMSwxdjNjMCwwLjU1MiAtMC40NDgsMSAtMSwxeiIvPjxwYXRoIGQ9Ik0yNiwxNmgtM2MtMC41NTIsMCAtMSwtMC40NDggLTEsLTF2LTNjMCwtMC41NTIgMC40NDgsLTEgMSwtMWgzYzAuNTUyLDAgMSwwLjQ0OCAxLDF2M2MwLDAuNTUyIC0wLjQ0OCwxIC0xLDF6Ii8+PHBhdGggZD0iTTI2LDEwaC0zYy0wLjU1MiwwIC0xLC0wLjQ0OCAtMSwtMXYtM2MwLC0wLjU1MiAwLjQ0OCwtMSAxLC0xaDNjMC41NTIsMCAxLDAuNDQ4IDEsMXYzYzAsMC41NTIgLTAuNDQ4LDEgLTEsMXoiLz48cGF0aCBkPSJNMzIsMjJoLTNjLTAuNTUyLDAgLTEsLTAuNDQ4IC0xLC0xdi0zYzAsLTAuNTUyIDAuNDQ4LC0xIDEsLTFoM2MwLjU1MiwwIDEsMC40NDggMSwxdjNjMCwwLjU1MiAtMC40NDgsMSAtMSwxeiIvPjwvZz48L2c+PC9zdmc+;movable=0;resizable=0;rotatable=0;deletable=0;editable=0;locked=1;connectable=0;" parent="Poqv3Z_RuK3P6okCBcd1-76" vertex="1">
          <mxGeometry x="10" y="4" width="30" height="30" as="geometry" />
        </mxCell>
        <mxCell id="Poqv3Z_RuK3P6okCBcd1-72" value="&lt;font style=&quot;font-size: 8px;&quot;&gt;Artifact Registry&lt;/font&gt;" style="text;html=1;strokeColor=none;fillColor=none;align=center;verticalAlign=middle;whiteSpace=wrap;rounded=0;movable=0;resizable=0;rotatable=0;deletable=0;editable=0;locked=1;connectable=0;" parent="Poqv3Z_RuK3P6okCBcd1-76" vertex="1">
          <mxGeometry x="40" y="4" width="60" height="30" as="geometry" />
        </mxCell>
        <mxCell id="Poqv3Z_RuK3P6okCBcd1-83" value="&lt;font style=&quot;font-size: 8px;&quot;&gt;&lt;b&gt;Continuous Delivery&lt;/b&gt;&lt;/font&gt;" style="text;html=1;strokeColor=none;fillColor=none;align=center;verticalAlign=middle;whiteSpace=wrap;rounded=0;movable=0;resizable=0;rotatable=0;deletable=0;editable=0;locked=1;connectable=0;" parent="1" vertex="1">
          <mxGeometry x="604.5" y="154.25" width="60" height="30" as="geometry" />
        </mxCell>
        <mxCell id="Poqv3Z_RuK3P6okCBcd1-84" value="" style="endArrow=classic;html=1;rounded=0;exitX=1;exitY=0.5;exitDx=0;exitDy=0;entryX=0;entryY=0.5;entryDx=0;entryDy=0;movable=0;resizable=0;rotatable=0;deletable=0;editable=0;locked=1;connectable=0;" parent="1" source="Poqv3Z_RuK3P6okCBcd1-71" target="Poqv3Z_RuK3P6okCBcd1-74" edge="1">
          <mxGeometry width="50" height="50" relative="1" as="geometry">
            <mxPoint x="568.5" y="298.25" as="sourcePoint" />
            <mxPoint x="618.5" y="248.25" as="targetPoint" />
          </mxGeometry>
        </mxCell>
        <mxCell id="Poqv3Z_RuK3P6okCBcd1-85" value="" style="endArrow=classic;html=1;rounded=0;exitX=0.5;exitY=0;exitDx=0;exitDy=0;entryX=0.5;entryY=1;entryDx=0;entryDy=0;movable=0;resizable=0;rotatable=0;deletable=0;editable=0;locked=1;connectable=0;" parent="1" source="Poqv3Z_RuK3P6okCBcd1-74" target="uSj3emTWA3s2GXRi0EhX-12" edge="1">
          <mxGeometry width="50" height="50" relative="1" as="geometry">
            <mxPoint x="598.5" y="250.25" as="sourcePoint" />
            <mxPoint x="648.5" y="200.25" as="targetPoint" />
          </mxGeometry>
        </mxCell>
        <mxCell id="Poqv3Z_RuK3P6okCBcd1-86" value="&lt;font style=&quot;font-size: 8px;&quot;&gt;pull image&lt;/font&gt;" style="edgeLabel;html=1;align=center;verticalAlign=middle;resizable=0;points=[];movable=0;rotatable=0;deletable=0;editable=0;locked=1;connectable=0;" parent="Poqv3Z_RuK3P6okCBcd1-85" vertex="1" connectable="0">
          <mxGeometry x="-0.2403" relative="1" as="geometry">
            <mxPoint y="-10" as="offset" />
          </mxGeometry>
        </mxCell>
        <mxCell id="Poqv3Z_RuK3P6okCBcd1-102" value="" style="endArrow=classic;html=1;rounded=0;entryX=0;entryY=0.5;entryDx=0;entryDy=0;exitX=1;exitY=1;exitDx=0;exitDy=0;strokeColor=#D74D3E;movable=0;resizable=0;rotatable=0;deletable=0;editable=0;locked=1;connectable=0;" parent="1" source="Poqv3Z_RuK3P6okCBcd1-2" target="Poqv3Z_RuK3P6okCBcd1-73" edge="1">
          <mxGeometry width="50" height="50" relative="1" as="geometry">
            <mxPoint x="414.5" y="261.25" as="sourcePoint" />
            <mxPoint x="464.5" y="211.25" as="targetPoint" />
          </mxGeometry>
        </mxCell>
        <mxCell id="Poqv3Z_RuK3P6okCBcd1-103" value="&lt;font style=&quot;font-size: 8px;&quot;&gt;changes&lt;br&gt;code&lt;/font&gt;" style="edgeLabel;html=1;align=center;verticalAlign=middle;resizable=0;points=[];movable=0;rotatable=0;deletable=0;editable=0;locked=1;connectable=0;" parent="Poqv3Z_RuK3P6okCBcd1-102" vertex="1" connectable="0">
          <mxGeometry x="-0.2743" relative="1" as="geometry">
            <mxPoint as="offset" />
          </mxGeometry>
        </mxCell>
        <mxCell id="uSj3emTWA3s2GXRi0EhX-1" value="" style="shape=image;verticalLabelPosition=bottom;labelBackgroundColor=default;verticalAlign=top;aspect=fixed;imageAspect=0;image=data:image/svg+xml,PHN2ZyB4bWxucz0iaHR0cDovL3d3dy53My5vcmcvMjAwMC9zdmciIHZpZXdCb3g9IjAgLTEwLjQ0IDcyMi44NDYgNzIyLjg0NiIgaGVpZ2h0PSI4MDBweCIgd2lkdGg9IjgwMHB4Ij48cGF0aCBmaWxsPSIjMzI2Y2U1IiBkPSJNMzU4Ljk4NiAxMC4wNmE0Ni43MjUgNDYuMzQyIDAgMDAtMTcuOTA2IDQuNTMxTDk2LjczNiAxMzEuMzQxYTQ2LjcyNSA0Ni4zNDIgMCAwMC0yNS4yOCAzMS40MzhsLTYwLjI4MiAyNjIuMjVhNDYuNzI1IDQ2LjM0MiAwIDAwNi4zNDQgMzUuNTMxIDQ2LjcyNSA0Ni4zNDIgMCAwMDIuNjU2IDMuNjg4bDE2OS4xMjUgMjEwLjI4YTQ2LjcyNSA0Ni4zNDIgMCAwMDM2LjUzMSAxNy40MzhsMjcxLjIxOS0uMDYyYTQ2LjcyNSA0Ni4zNDIgMCAwMDM2LjUzMS0xNy40MDZsMTY5LjA2My0yMTAuMzEzYTQ2LjcyNSA0Ni4zNDIgMCAwMDkuMDMtMzkuMjE5TDY1MS4zIDE2Mi43MTZhNDYuNzI1IDQ2LjM0MiAwIDAwLTI1LjI4MS0zMS40MzdMMzgxLjY0MyAxNC41OWE0Ni43MjUgNDYuMzQyIDAgMDAtMjIuNjU3LTQuNTN6Ii8+PHBhdGggZm9udC1mYW1pbHk9IlNhbnMiIG92ZXJmbG93PSJ2aXNpYmxlIiBzdHJva2Utd2lkdGg9Ii4yNSIgc3Ryb2tlPSIjZmZmZmZmIiBmaWxsPSIjZmZmZmZmIiBjb2xvcj0iIzAwMDAwMCIgZm9udC13ZWlnaHQ9IjQwMCIgc3R5bGU9InRleHQtaW5kZW50OjA7dGV4dC1hbGlnbjpzdGFydDtsaW5lLWhlaWdodDpub3JtYWw7dGV4dC10cmFuc2Zvcm06bm9uZTtibG9jay1wcm9ncmVzc2lvbjp0YjttYXJrZXI6bm9uZTstaW5rc2NhcGUtZm9udC1zcGVjaWZpY2F0aW9uOlNhbnMiIGQ9Ik0zNjEuNDA4IDk5LjMwN2MtOC4wNzcuMDAxLTE0LjYyNiA3LjI3Ni0xNC42MjUgMTYuMjUgMCAuMTM4LjAyOC4yNy4wMy40MDYtLjAxMSAxLjIyLS4wNyAyLjY4OS0uMDMgMy43NS4xOTIgNS4xNzYgMS4zMiA5LjEzOCAyIDEzLjkwNyAxLjIzIDEwLjIwNiAyLjI2IDE4LjY2NyAxLjYyNSAyNi41MzEtLjYyIDIuOTY1LTIuODAzIDUuNjc3LTQuNzUgNy41NjJsLS4zNDQgNi4xODhhMTkwLjMzNyAxOTAuMzM3IDAgMDAtMjYuNDM4IDQuMDYyYy0zNy45NzQgOC42MjMtNzAuNjcgMjguMTg0LTk1LjU2MiA1NC41OTRhMjQ1LjE2NyAyNDUuMTY3IDAgMDEtNS4yODEtMy43NWMtMi42MTIuMzUzLTUuMjUgMS4xNTktOC42ODgtLjg0NC02LjU0NS00LjQwNS0xMi41MDYtMTAuNDg2LTE5LjcxOS0xNy44MTItMy4zMDUtMy41MDQtNS42OTgtNi44NDEtOS42MjUtMTAuMjE5LS44OTEtLjc2Ny0yLjI1Mi0xLjgwNC0zLjI1LTIuNTk0LTMuMDctMi40NDctNi42OS0zLjcyNC0xMC4xODctMy44NDMtNC40OTYtLjE1NC04LjgyNCAxLjYwNC0xMS42NTYgNS4xNTYtNS4wMzYgNi4zMTUtMy40MjQgMTUuOTY4IDMuNTkzIDIxLjU2Mi4wNzEuMDU3LjE0Ny4xMDEuMjE5LjE1Ny45NjQuNzgxIDIuMTQ1IDEuNzgzIDMuMDMxIDIuNDM3IDQuMTY3IDMuMDc3IDcuOTczIDQuNjUyIDEyLjEyNSA3LjA5NCA4Ljc0NyA1LjQwMiAxNS45OTkgOS44OCAyMS43NSAxNS4yODEgMi4yNDYgMi4zOTQgMi42MzkgNi42MTMgMi45MzggOC40MzhsNC42ODcgNC4xODdjLTI1LjA5MyAzNy43NjQtMzYuNzA3IDg0LjQxLTI5Ljg0MyAxMzEuOTM4bC02LjEyNSAxLjc4MWMtMS42MTUgMi4wODUtMy44OTYgNS4zNjUtNi4yODIgNi4zNDQtNy41MjUgMi4zNy0xNS45OTQgMy4yNC0yNi4yMTggNC4zMTItNC44LjQtOC45NDMuMTYxLTE0LjAzMiAxLjEyNS0xLjEyLjIxMi0yLjY4LjYxOS0zLjkwNi45MDZsLS4xMjUuMDMyYy0uMDY3LjAxNS0uMTU1LjA0OC0uMjE5LjA2Mi04LjYyIDIuMDgzLTE0LjE1NyAxMC4wMDYtMTIuMzc1IDE3LjgxMyAxLjc4MyA3LjgwOCAxMC4yMDMgMTIuNTU2IDE4Ljg3NSAxMC42ODcuMDYzLS4wMTQuMTU0LS4wMTcuMjE5LS4wMzEuMDk4LS4wMjIuMTg0LS4wNy4yODEtLjA5NCAxLjIxLS4yNjUgMi43MjQtLjU2IDMuNzgyLS44NDMgNS4wMDMtMS4zNCA4LjYyNi0zLjMwOCAxMy4xMjUtNS4wMzIgOS42NzYtMy40NyAxNy42OTEtNi4zNyAyNS41LTcuNSAzLjI2LS4yNTUgNi42OTcgMi4wMTIgOC40MDYgMi45NjlsNi4zNzUtMS4wOTRjMTQuNjcgNDUuNDgzIDQ1LjQxNCA4Mi4yNDUgODQuMzQ0IDEwNS4zMTNsLTIuNjU3IDYuMzc1Yy45NTggMi40NzUgMi4wMTQgNS44MjQgMS4zIDguMjctMi44MzggNy4zNi03LjcgMTUuMTMtMTMuMjM3IDIzLjc5Mi0yLjY4MSA0LjAwMi01LjQyNSA3LjEwOC03Ljg0NCAxMS42ODgtLjU3OSAxLjA5Ni0xLjMxNiAyLjc4LTEuODc1IDMuOTM3LTMuNzU5IDguMDQzLTEuMDAyIDE3LjMwNSA2LjIxOSAyMC43ODIgNy4yNjYgMy40OTcgMTYuMjg0LS4xOTIgMjAuMTg3LTguMjUuMDA2LS4wMTIuMDI2LS4wMi4wMzEtLjAzMi4wMDQtLjAwOS0uMDA0LS4wMjIgMC0uMDMuNTU2LTEuMTQzIDEuMzQ0LTIuNjQ1IDEuODEzLTMuNzIgMi4wNzItNC43NDcgMi43NjItOC44MTUgNC4yMTktMTMuNDA2IDMuODctOS43MiA1Ljk5NS0xOS45MTkgMTEuMzIyLTI2LjI3NCAxLjQ1OS0xLjc0IDMuODM3LTIuNDEgNi4zMDMtMy4wN2wzLjMxMi02YzMzLjkzOCAxMy4wMjcgNzEuOTI3IDE2LjUyMyAxMDkuODc1IDcuOTA3YTE4OS43NyAxODkuNzcgMCAwMDI1LjA5NC03LjU2M2MuOTMgMS42NTEgMi42NjEgNC44MjYgMy4xMjUgNS42MjUgMi41MDYuODE1IDUuMjQgMS4yMzYgNy40NjkgNC41MzEgMy45ODUgNi44MSA2LjcxIDE0Ljg2NSAxMC4wMzEgMjQuNTk0IDEuNDU3IDQuNTkxIDIuMTc4IDguNjYgNC4yNSAxMy40MDYuNDcyIDEuMDgyIDEuMjU2IDIuNjA1IDEuODEyIDMuNzUgMy44OTUgOC4wODUgMTIuOTQzIDExLjc4NyAyMC4yMiA4LjI4MiA3LjIxOS0zLjQ3OCA5Ljk3OS0xMi43NCA2LjIxOC0yMC43ODItLjU1OS0xLjE1OC0xLjMyNy0yLjg0MS0xLjkwNi0zLjkzNy0yLjQyLTQuNTgtNS4xNjMtNy42NTUtNy44NDQtMTEuNjU2LTUuNTM3LTguNjYyLTEwLjEzLTE1Ljg1OC0xMi45NjktMjMuMjItMS4xODctMy43OTYuMi02LjE1NyAxLjEyNS04LjYyNC0uNTU0LS42MzUtMS43MzktNC4yMi0yLjQzNy01LjkwNiA0MC40NTctMjMuODg5IDcwLjI5OC02Mi4wMjIgODQuMzEyLTEwNi4wNjMgMS44OTMuMjk4IDUuMTgyLjg4IDYuMjUgMS4wOTQgMi4yLTEuNDUgNC4yMjItMy4zNDQgOC4xODgtMy4wMzEgNy44MDggMS4xMjkgMTUuODIzIDQuMDMgMjUuNSA3LjUgNC40OTggMS43MjMgOC4xMjEgMy43MjMgMTMuMTI1IDUuMDYyIDEuMDU3LjI4MyAyLjU3Mi41NDcgMy43ODEuODEzLjA5Ny4wMjMuMTgzLjA3MS4yODEuMDkzLjA2Ni4wMTUuMTU2LjAxNy4yMTkuMDMyIDguNjcyIDEuODY2IDE3LjA5NC0yLjg4IDE4Ljg3NS0xMC42ODggMS43OC03LjgwNy0zLjc1NC0xNS43MzItMTIuMzc1LTE3LjgxMi0xLjI1NC0uMjg2LTMuMDMyLS43Ny00LjI1LTEtNS4wOS0uOTY0LTkuMjMxLS43MjctMTQuMDMxLTEuMTI1LTEwLjIyNS0xLjA3Mi0xOC42OTQtMS45NDMtMjYuMjE5LTQuMzEzLTMuMDY4LTEuMTktNS4yNTEtNC44NDEtNi4zMTMtNi4zNDRsLTUuOTA2LTEuNzE4YzMuMDYyLTIyLjE1NSAyLjIzNy00NS4yMTItMy4wNjItNjguMjgyLTUuMzQ5LTIzLjI4NC0xNC44LTQ0LjU4LTI3LjQwNy02My4zNDMgMS41MTUtMS4zNzggNC4zNzctMy45MTEgNS4xODgtNC42NTcuMjM3LTIuNjI0LjAzMy01LjM3NSAyLjc1LTguMjgxIDUuNzUxLTUuNCAxMy4wMDMtOS44NzkgMjEuNzUtMTUuMjgxIDQuMTUyLTIuNDQzIDcuOTktNC4wMTcgMTIuMTU2LTcuMDk0Ljk0Mi0uNjk2IDIuMjMtMS43OTggMy4yMTktMi41OTQgNy4wMTUtNS41OTYgOC42My0xNS4yNDggMy41OTQtMjEuNTYyLTUuMDM3LTYuMzE0LTE0Ljc5Ny02LjkxLTIxLjgxMy0xLjMxMy0uOTk4Ljc5MS0yLjM1MyAxLjgyMy0zLjI1IDIuNTk0LTMuOTI2IDMuMzc4LTYuMzUxIDYuNzE0LTkuNjU2IDEwLjIxOS03LjIxMyA3LjMyNi0xMy4xNzQgMTMuNDM4LTE5LjcxOSAxNy44NDQtMi44MzYgMS42NS02Ljk5IDEuMDgtOC44NzUuOTY4bC01LjU2MiAzLjk2OWMtMzEuNzItMzMuMjYtNzQuOTA1LTU0LjUyNS0xMjEuNDA2LTU4LjY1Ni0uMTMtMS45NDktLjMtNS40NzEtLjM0NC02LjUzMi0xLjkwNC0xLjgyMS00LjIwNC0zLjM3Ni00Ljc4MS03LjMxMi0uNjM3LTcuODY0LjQyNi0xNi4zMjUgMS42NTYtMjYuNTMxLjY3OS00Ljc2OSAxLjgwNy04LjczIDItMTMuOTA3LjA0NC0xLjE3Ni0uMDI3LTIuODg0LS4wMzEtNC4xNTYtLjAwMS04Ljk3NC02LjU0OC0xNi4yNS0xNC42MjUtMTYuMjV6bS0xOC4zMTMgMTEzLjQzOGwtNC4zNDQgNzYuNzE4LS4zMTIuMTU3Yy0uMjkyIDYuODYzLTUuOTQgMTIuMzQzLTEyLjg3NSAxMi4zNDMtMi44NDEgMC01LjQ2My0uOTEyLTcuNTk0LTIuNDY4bC0uMTI1LjA2Mi02Mi45MDYtNDQuNTk0YzE5LjMzMy0xOS4wMSA0NC4wNjMtMzMuMDYgNzIuNTYyLTM5LjUzYTE1NC4xMjUgMTU0LjEyNSAwIDAxMTUuNTk0LTIuNjg4em0zNi42NTYgMGMzMy4yNzQgNC4wOTIgNjQuMDQ1IDE5LjE1OSA4Ny42MjUgNDIuMjVsLTYyLjUgNDQuMzEyLS4yMTgtLjA5M2MtNS41NDggNC4wNTEtMTMuMzY0IDMuMDQ2LTE3LjY4OC0yLjM3NWExMi44MDcgMTIuODA3IDAgMDEtMi44MTItNy40N2wtLjA2My0uMDN6TTIzMi4xMjYgMjgzLjYybDU3LjQzOCA1MS4zNzUtLjA2My4zMTJjNS4xODUgNC41MDcgNS45NSAxMi4zMjggMS42MjUgMTcuNzVhMTIuODkyIDEyLjg5MiAwIDAxLTYuNjg3IDQuNDA2bC0uMDYzLjI1LTczLjYyNSAyMS4yNWMtMy43NDctMzQuMjY1IDQuMzI5LTY3LjU3MyAyMS4zNzUtOTUuMzQzem0yNTguMTU3LjAzYzguNTM0IDEzLjgzMyAxNC45OTYgMjkuMjgzIDE4Ljg0MyA0Ni4wMzIgMy44MDEgMTYuNTQ4IDQuNzU1IDMzLjA2NyAzLjE4OCA0OS4wMzFsLTc0LTIxLjMxMi0uMDYzLS4zMTNjLTYuNjI2LTEuODEtMTAuNjk5LTguNTUxLTkuMTU2LTE1LjMxMmExMi43ODYgMTIuNzg2IDAgMDE0LjA5NC02Ljg0NGwtLjAzMS0uMTU2IDU3LjEyNS01MS4xMjV6bS0xNDAuNjU3IDU1LjMxM2gyMy41MzJsMTQuNjI1IDE4LjI4Mi01LjI1IDIyLjgxMi0yMS4xMjUgMTAuMTU2LTIxLjE4OC0xMC4xODctNS4yNS0yMi44MTN6bTc1LjQzOCA2Mi41NjNjMS0uMDUgMS45OTUuMDQgMi45NjkuMjE5bC4xMjUtLjE1NyA3Ni4xNTYgMTIuODc1Yy0xMS4xNDYgMzEuMzE0LTMyLjQ3MyA1OC40NC02MC45NjkgNzYuNTk0bC0yOS41NjItNzEuNDA2LjA5My0uMTI1Yy0yLjcxNS02LjMxLjAwMi0xMy43MSA2LjI1LTE2LjcxOSAxLjYtLjc3IDMuMjcxLTEuMTk3IDQuOTM4LTEuMjgxem0tMTI3LjkwNi4zMTJjNS44MTEuMDgyIDExLjAyNCA0LjExNiAxMi4zNzUgMTAuMDMyLjYzMiAyLjc3LjMyNCA1LjUxMy0uNzIgNy45MzdsLjIyLjI4MS0yOS4yNSA3MC42ODhjLTI3LjM0OC0xNy41NDktNDkuMTMtNDMuODI0LTYwLjc4Mi03Ni4wNjNsNzUuNS0xMi44MTIuMTI1LjE1NmMuODQ1LS4xNTUgMS43MDEtLjIzIDIuNTMyLS4yMTl6bTYzLjc4IDMwLjk3YTEyLjc2NCAxMi43NjQgMCAwMTYuMDMyIDEuMjhjMi41NiAxLjIzMyA0LjUzNyAzLjE3NCA1Ljc4MSA1LjVoLjI4MmwzNy4yMTggNjcuMjVhMTU0LjI1NiAxNTQuMjU2IDAgMDEtMTQuODc1IDQuMTU3Yy0yOC40NjQgNi40NjMtNTYuODM4IDQuNTA0LTgyLjUzLTQuMjVsMzcuMTI0LTY3LjEyNWguMDYzYTEyLjkxIDEyLjkxIDAgMDExMC45MDYtNi44MTN6Ii8+PC9zdmc+;movable=0;resizable=0;rotatable=0;deletable=0;editable=0;locked=1;connectable=0;" vertex="1" parent="1">
          <mxGeometry x="497.5" y="132.25" width="14" height="14" as="geometry" />
        </mxCell>
        <mxCell id="uSj3emTWA3s2GXRi0EhX-2" value="" style="endArrow=classic;html=1;rounded=0;entryX=0;entryY=0.5;entryDx=0;entryDy=0;exitX=1;exitY=0;exitDx=0;exitDy=0;strokeColor=#d74d3e;movable=0;resizable=0;rotatable=0;deletable=0;editable=0;locked=1;connectable=0;" edge="1" parent="1" source="Poqv3Z_RuK3P6okCBcd1-2" target="uSj3emTWA3s2GXRi0EhX-9">
          <mxGeometry width="50" height="50" relative="1" as="geometry">
            <mxPoint x="428.5" y="226.25" as="sourcePoint" />
            <mxPoint x="504.5" y="182.25" as="targetPoint" />
          </mxGeometry>
        </mxCell>
        <mxCell id="uSj3emTWA3s2GXRi0EhX-3" value="&lt;font style=&quot;font-size: 8px;&quot;&gt;changes&lt;br&gt;config&lt;/font&gt;" style="edgeLabel;html=1;align=center;verticalAlign=middle;resizable=0;points=[];movable=0;rotatable=0;deletable=0;editable=0;locked=1;connectable=0;" vertex="1" connectable="0" parent="uSj3emTWA3s2GXRi0EhX-2">
          <mxGeometry x="-0.1877" y="1" relative="1" as="geometry">
            <mxPoint as="offset" />
          </mxGeometry>
        </mxCell>
        <mxCell id="uSj3emTWA3s2GXRi0EhX-10" value="" style="group;movable=0;resizable=0;rotatable=0;deletable=0;editable=0;locked=1;connectable=0;" vertex="1" connectable="0" parent="1">
          <mxGeometry x="516" y="169.75" width="75" height="38" as="geometry" />
        </mxCell>
        <mxCell id="uSj3emTWA3s2GXRi0EhX-9" value="" style="rounded=0;whiteSpace=wrap;html=1;strokeColor=#45799c;movable=0;resizable=0;rotatable=0;deletable=0;editable=0;locked=1;connectable=0;" vertex="1" parent="uSj3emTWA3s2GXRi0EhX-10">
          <mxGeometry width="75" height="38" as="geometry" />
        </mxCell>
        <mxCell id="uSj3emTWA3s2GXRi0EhX-7" value="" style="shape=image;verticalLabelPosition=bottom;labelBackgroundColor=default;verticalAlign=top;aspect=fixed;imageAspect=0;image=data:image/svg+xml,PHN2ZyB4bWxucz0iaHR0cDovL3d3dy53My5vcmcvMjAwMC9zdmciIGhlaWdodD0iNjQiIHdpZHRoPSI2NCIgdmlld0JveD0iOS4yOCAtOC4yOCA2NCA2NCI+PGcgZmlsbD0iI2ZlZmVmZSI+PHBhdGggZD0iTTM3Ljc0NSA0My42MjNjLjAwNSAwIC4wMS4wMTcuMDEuMDVsLjAxNy43LjEwNS0uNTM0Yy0uMDI4LS4zMzYtLjI5Mi0uMTY1LS4xMzItLjIwNHpNNTIuMiAyNC43ODJjLS4wMDUuMDA1LS4wMTcuMDA1LS4wMjIuMDEuMDA1LjAwNS4wMTcuMDEuMDIyLjAxNy0uMDA1LS4wMDUgMC0uMDE3IDAtLjAyOHoiLz48cGF0aCBkPSJNNDMuMDk0IDEuNjU0eiIvPjwvZz48cGF0aCBmaWxsPSIjZmU3MzNlIiBkPSJNNTAuODM1IDQ4LjEwMmwuMTMyLTIuNDAyYy4yMi0xLjc0Ni4wMS0zLjUzLjQ2OC01LjI1Ni4yMjYtLjg5Mi0uNDk2LTEuOTQuNDMtMi43MjJsLS4yMy0uNzZjLS4yNi0uNDMtLjEyNy0uODQ4LjAyOC0xLjI2Ny0uMDE3LTEuNTMyIDAtMy4wNjMuMjc1LTQuNTc4bC4yNTMtNi4zMmMtLjAwNS0uMDA1LS4wMTctLjAxLS4wMjItLjAxNy00LjUgMi4wNjYtOC43NDMtLjgyNi05LjQ2NS00LjI5Ny0uNDc0LTIuMjgtLjIyLTQuNDM1IDEuNTYtNi4xNzYuMjk3LS4yOTIuNTUtLjYyOC44MjYtLjk0OC43MjctNC4zNi4yLTguMzYtMy41MDQtMTEuNDc2LjU1Ni0uMzIgMS4wNTgtLjEzOCAxLjUtLjIyLTQuNTYtMS4xNS0xMC4xIDEuOTc1LTExLjkzNiA2Ljc0Ny0uNTUgMS40MzItLjg0OCAyLjktLjc1NSA0LjQ0NiA0LjUzLTIuMSA4LjYuNDA4IDkuNzA3IDQuMjI2IDEuMTYyIDMuOTcyLTEuOTM0IDguMTc2LTYuMDUgOC4yMzYtMS4yLjAxNy0yLjM0LS4xODItMy40NzYtLjUxOGwuMjUzIDYuNTc4Yy4xNiAxLjQzOC4zMyAyLjg3LjI2IDQuMzJsLjAzMyAxLjAyNS0uMDMzLjY4M2MuMzM2IDEuMzc3LjQwOCAyLjc5My41MTIgNC4yMDRhLjc4Ljc4IDAgMCAxLS4wMjItLjExYy4wMDUuMDQuMDE3LjA3Mi4wMjIuMWwuMzQ3IDcuMTk1Yy4wNzIuOTkyLS4yODYgMS40ODctMS4yIDEuNzQtMS4wOC4zMDMtMi4xNDMuNjY3LTMuMjEyIDEuMDA4IDEuNDMyLjE5OCAyLjg0My4yMiA0LjI1My4xODcgMS41MjYtLjAzMyAyLjIyLS43IDIuMzctMi4yMjZsLjI2NC0yLjg5Mi4yOTctNS4yNDVoLjIxNXY0Ljk4NmwuMDg4IDIuMjdjLjIyIDMuNTIuMzI1IDMuNDk4LTMuMTg0IDQuMi0uMDgzLjAxNy0uMTU0LjA2Ni0uMjMuMWwuNjI4LjQyYy4wNjYuMDE3LjEyLjA0NC4xNTQuMTA1LjgzNy4wMDUgMS42OC4wNzcgMi41MDcgMCAxLjUwNC0uMTQzIDIuMjE1LS45NDggMi4zMjUtMi40NC4wNjYtLjk2LjE2NS0xLjkxNy4yNDgtMi44NzYtLjEzMi0xLjI3My4wNi0yLjUyMy4yOTctMy43NzRsLS4wMTctLjdjMC0uMDMzLS4wMS0uMDU1LS4wMS0uMDUtLjE2LjA0LjEwNS0uMTMyLjEzMi4yMDRsLjA4OC0uNDQ2djUuNzc0bC4wNSAyLjAyN2MuMDI4IDIuNDUyLS4xMjcgMi42NzItMi40NjMgMy4zNzItLjY0NS4xOTMtMS4zMTcuMy0xLjk1Ni41MjMtLjQ2My4xNi0xLjA1Mi4wNzItMS40ODcuNjE3IDEuOS0uMDcyIDMuNjguMTQzIDUuNDUtLjE0MyAxLjgzLS4yOTcgMi41NTYtMS4wMzYgMi45My0yLjgyLjI3NS0xLjMuNC0yLjY2Ljg5Mi00IC4wNzIuMTQzLjEyNy4yLjE0My4yODZsLjc1IDMuNzI0Yy4zNDIgMS43MzUgMS4wNDcgMi40NzQgMi44IDIuNzgyIDEuODI0LjMxNCAzLjY3LjEgNS41Ni4xNDMtLjI3LS40NjMtLjY5NC0uMzg2LTEuMDM2LS40ODUtMS4xNzMtLjM0Mi0yLjM3LS42MzQtMy41Mi0xLjAzLS44MzctLjI5Mi0xLjQzOC0uODI2LTEuNDI3LTEuODU3bC4wMS04LjQ2Mkg0NWwuMzU4IDUuM2MuMjE1IDQuMDg4LjcgNC41MzQgNC44MDQgNC4zMDguMjMtLjM4Ni44LS4wODMgMS4wMTQtLjQ5Ni0uOTg2LS4wMDUtMS44NDYtLjQ4LTIuNzUtLjc4Mi0uNTA3LS4xNy0uNzkzLS42MjgtLjc4Mi0xLjIuMDQ0LTIuODk4LS4wNjYtNS44MDcuMzI1LTguNjk0bC42MTIgNy4yNzhjLjA4OCAxLjEzNS42IDIuMDIyIDEuOCAyLjEgMS42LjEgMy4yMjMuMDI4IDQuODM3LjAyOC0uODU0LS40My0xLjczLS42ODMtMi42LS45Ni0xLjk3Mi0uNjM0LTEuOTYtLjY0LTEuNzgtMi42NDR6TTM4LjQyOCA2Ljc2N2ExLjQ4IDEuNDggMCAwIDEtMS40NjUgMS40NjVjLS44NjUuMDE3LTEuNTE1LS40OC0xLjUzMi0xLjYwMy4wOTQtLjgxNS41NS0xLjM3MiAxLjUyLTEuMzk0IDEuMDMtLjAxNyAxLjQ5My42NzggMS40NzYgMS41MzJ6bTYuNjIyIDI0LjA5N2MuMDA1IDIuMjMtMS43MDIgNC4xNzYtMy42NTMgNC4xNy0xLjg0LS4wMDUtMy43Mi0yLjE3Ni0zLjY1My00LjIyNmwtLjM0Mi0yLjA2NmMxLjMxNy44OTggMi40MjQgMS44MTggMy45MDYgMS44NSAxLjUxNS4wMjggMi43MDUtLjc1IDMuOTQ1LTEuNjU4LjI2NC43MjctLjQwMiAxLjI5NS0uMjA0IDEuOTI4eiIvPjxwYXRoIGZpbGw9IiNiNWQyZjMiIGQ9Ik0zMS4wOTUgMzUuN2wtLjMyLS4xMjdjLTEuNS0uNjE3LTIuODE1LTEuNTY1LTQuMDI3LTIuNjE3LTQuMzc0LTMuNzgtNy4yNi04LjUxMi03Ljk2LTE0LjI1Mi0uNzkzLTYuNTIzLjY2Ny0xMi41NDUgNS4wMi0xNy43MTggMy45NzItNC43MTYgOS4wMzUtNy40NjUgMTUuMDgtOC4xIDYuNzE2LS43IDEyLjc0OCAxLjE4IDE3LjgyOCA1LjgxOCA0LjIzNyAzLjg2NyA2LjcgOC42NiA3LjM0NCAxNC4yOTYuNTQgNC44LS4zMjUgOS40MzctMi43OTMgMTMuNjUyLTIuMjQyIDMuODMtNS4yMjggNi45MzYtOS4yNjcgOC45MDNsLS4zMy4xNmMtLjE1NC40Mi0uMjkyLjgzNy0uMDI4IDEuMjY3LjA5NC0uMDgzLjE3Ni0uMTg3LjI4Ni0uMjQ4IDYuMS0zLjIyOCAxMC4zMy04LjAyNyAxMi4zMDgtMTQuNzA0LjE3LS41NjcuNDM1LS44NDggMS4wNy0uNzgyLjg2LjA4OCAxLjEtLjQ4NSAxLjEtMS4ybC4wMDUtOC4yNDJjMC0uNi0uMTQzLTEuMjQtLjc1NS0xLjMwNi0xLjEyNC0uMTMyLTEuMjYyLS45NTMtMS40ODctMS43NTJDNjIuODM0IDQuMSA2MC4zLjIyMiA1Ni41LTIuNzQ4Yy03Ljc2OC02LjEtMTYuMjk2LTcuMi0yNS4yNDMtMy4wOEMyNC42MTYtMi43NyAyMC4zOCAyLjUzNiAxOC40NjMgOS42MzdjLS4xMi40NC0uMDY2Ljk2NC0uODE1LjgtMS4wNy0uMjItMS40Ny40MDgtMS40NzYgMS4zNTVsLS4wMDUgOC4yNDJjMCAuOTE1LjQ2MyAxLjQgMS4zNDQgMS4xODQuOC0uMTk4IDEuMDAzLjIwNCAxLjE2OC44Mi43MTYgMi42MzMgMS45MTIgNS4wNCAzLjUzIDcuMjQgMi4zNyAzLjIxMiA1LjI1NiA1LjggOC45MjUgNy40MzJsLS4wNC0xLjAzeiIvPjxwYXRoIGZpbGw9IiNmZTY4NGIiIGQ9Ik0zMS4xIDM3LjM5OGMtLjgxNSAyLjI4Ni0yLjk4NiAyLjIzLTQuODMyIDIuODA0IDEuMzg4LjM1OCAyLjguNzcgNC4xODcuNTM0LjgyNi0uMTQzLjk4Ni4xNTQgMS4xMDcuNjQ1bC4wMjguMTE2LjAyMi4xYy0uMTA1LTEuNDE2LS4xNzYtMi44MjYtLjUxMi00LjJ6Ii8+PHBhdGggZmlsbD0iI2ZlNjQ0NiIgZD0iTTUxLjQzNSA0MC40NWMxLjc2My44IDMuNDI3LS4wMDUgNS4xMy0uMjM3LTEuNjY0LS43MDUtMy44MTgtLjM0Mi00LjY5NC0yLjQ4NS0uOTMuNzgyLS4yIDEuODMtLjQzNSAyLjcyMnoiLz48cGF0aCBmaWxsPSIjZmVkNmM4IiBkPSJNMzcuOTY1IDQzLjM4bC0uMDg4LjQ0Ni0uMTA1LjUzNGMtLjIzNyAxLjI1LS40MyAyLjUtLjI5NyAzLjc3NC40MTMuMjE1LjEuNzgyLjUgMS4wMTRWNDMuMzh6Ii8+PHBhdGggZmlsbD0iI2ZlZWJlMyIgZD0iTTM0LjczIDQxLjM2NWwtLjI5NyA1LjI0NS41MTItLjI2di00Ljk4NmgtLjIxNXoiLz48cGF0aCBmaWxsPSIjZmU5MTY2IiBkPSJNMjkuNTUzIDUzLjQ1MmgyLjg0M2wtLjE1NC0uMTA1LS42MjgtLjQyYy0uNjIzLS4wMzMtMS4yMDcuMTA1LTIuMDYuNTIzeiIvPjxwYXRoIGZpbGw9IiNmZThmNjQiIGQ9Ik01MC4xNjggNTMuNDUyaDIuNzY2Yy0uNTYyLS4zMjUtMS4xMTMtLjYtMS43NTItLjQ5Ni0uMjE1LjQyLS43ODguMS0xLjAxNC40OTZ6Ii8+PHBhdGggZmlsbD0iI2UyZjVmYyIgZD0iTTUyLjAwMyAzNS41NGM0LjAzOC0xLjk2IDcuMDItNS4wNjggOS4yNjctOC45MDMgMi40NjgtNC4yMTUgMy4zMzMtOC44NTMgMi43OTMtMTMuNjUyQzYzLjQzIDcuMzQ1IDYwLjk2IDIuNTUyIDU2LjcyLTEuMyA1MS42NC01Ljk0MyA0NS42MDctNy44MjcgMzguOS03LjEyMmMtNi4wMzguNjI4LTExLjEwNyAzLjM4My0xNS4wOCA4LjFDMTkuNDU0IDYuMTUgMTggMTIuMTcgMTguNzkzIDE4LjY5NGMuNyA1Ljc0NiAzLjU4NyAxMC40NzMgNy45NiAxNC4yNTIgMS4yMTggMS4wNTIgMi41MjMgMi4wMDUgNC4wMjcgMi42MTcuMTA1LjA0NC4yLjA4OC4zMi4xMjcuMDcyLTEuNDUtLjEtMi44OC0uMjYtNC4zMmwtLjMzLS4yMzdjLTEuMTE4LS44LTIuMDc3LTEuODA3LTMuMDQtMi43ODgtLjI5Mi0uMjk3LS42NTYtLjU1LS42NTYtMS4wMzYtLjY1LjQ2OC0xLjExOC4xNDMtMS41LS4zNzUtMi4xMTYtMi44ODctMy4zOTQtNi4wODgtMy41NjQtOS43LS4xNTQtMy4xODQuMTMyLTYuMjggMS40Ny05LjI2IDEuNzAyLTMuNzg1IDQuMzItNi42NzcgNy44MzQtOC44MjYuNTk1LS4zNjQuOTM3LS4wNCAxLjM1LjIzLjQwMi0uMDQuNzYtLjE3NiAxLjAyLS41MDdsLS4wNS0uMTE2Yy0uMzUzLS43NDQtLjM3LTEuNTg3LjQ4LTEuNzg1Ljg1NC0uMjA0IDEuMzQuNSAxLjM0NCAxLjM4OEM0MS41NzItMy43MjYgNDcuNS0yLjg3NyA1Mi44NSAxLjIwNWM0IDMuMDUyIDYuMjkyIDcuMTQ1IDcgMTIuMTM3LjkwNCA2LjQxOC0xLjI2NyAxMS43NC01Ljc0IDE2LjI0LS41My41My0xLjEyNCAxLjAwOC0xLjc5NiAxLjM2NmExMC4wOSAxMC4wOSAwIDAgMS0uMzQ3LjE3MWMtLjI3NSAxLjUxNS0uMjkyIDMuMDQ3LS4yNzUgNC41NzhsLjMyLS4xNnoiLz48cGF0aCBmaWxsPSIjY2RlY2Y2IiBkPSJNNTQuMSAyOS42YzQuNDY4LTQuNSA2LjY0LTkuODIzIDUuNzQtMTYuMjQtLjctNC45OTctMi45OTItOS4xLTctMTIuMTM3QzQ3LjUtMi44NyA0MS41NTctMy43MTIgMzUuMi0xLjYyNGMtLjAxLjAwNS0uMDIyLjAxNy0uMDMzLjAyMi0uNS4zMi0uODkyIDEuMDA4LTEuNjE0LjU3OC0uMDQ0LS4wMjgtLjA4My0uMDUtLjEyNy0uMDgzLS4yNi4zMy0uNjEyLjQ2OC0xLjAyLjUwNy0uMDE3LjA2Ni0uMDQuMTI3LS4wNi4xOTMtLjQ1NyAxLjI4NC0xLjgzIDEuNjItMi43NSAyLjQtMi40OTYgMi4wODgtNC4zNDcgNC42LTUuNDM4IDcuNjItMS43NTIgNC44OC0xLjM5NCA5LjY2My45NTMgMTQuMjguMzguNzUuODQ4IDEuNDYgMS4zNSAyLjEzOGExLjggMS44IDAgMCAxIC4zNTMgMS4yODRjMCAuNDk2LjM2NC43NTUuNjU2IDEuMDUyLjk3Ljk4IDEuOTIzIDEuOTc4IDMuMDQgMi43ODhsLjMzLjIzNy0uMjUzLTYuNTc4Yy0xLjkxNy0xLjI1Ni0zLjMxNy0yLjg1NC0zLjU2LTUuMjM0LS4zMDMtMi45MzYuOTMtNS4xMDcgMy4zMzMtNi42ODguMDEtLjAwNS4wMjItLjAxNy4wMzMtLjAyMi0uMDk0LTEuNTQzLjIwNC0zLjAyLjc1NS00LjQ0NkMzMi45NzQgMy42NSAzOC41MTYuNTIgNDMuMDgzIDEuNjY1YzMuMDQ3LjQ5NiA1LjUzNyAxLjg4IDcuMzIyIDQuNDE4IDEuNDI3IDIuMDMzIDIuMTY1IDQuMjc1IDIgNi43NzYgMS43MiAxLjMwNiAzLjEwNyAyLjgzNyAzLjMzMyA1LjEwMi4zMDMgMy4wNDctLjk5NyA1LjI3Mi0zLjU2IDYuODI2di4wMjhsLS4yNTMgNi4zMmMuMTItLjA1NS4yMzctLjEuMzQ3LS4xNy42ODMtLjM1OCAxLjI3OC0uODM3IDEuODA3LTEuMzcyeiIvPjxwYXRoIGZpbGw9IiNmZTZiM2MiIGQ9Ik00Ni42NyAxMi42MTJjMS45LS45MyAzLjcyNC0uNDMgNS41NDguMTdsLjIwNC4wNjZjLjE1NC0yLjUwNy0uNTg0LTQuNzUtMi02Ljc3Ni0xLjc4NS0yLjU0LTQuMjc1LTMuOTIzLTcuMzA1LTQuNDEzLS40NjguMDg4LS45Ny0uMS0xLjUyNi4yMiAzLjcyNCAzLjExOCA0LjIzNyA3LjExOCAzLjUwNCAxMS40NzZsMS41ODctLjc0NHoiLz48cGF0aCBmaWxsPSIjZmU2MTQyIiBkPSJNNTUuNzYgMTcuOTU2Yy0uMjI2LTIuMjY0LTEuNjE0LTMuNzk2LTMuMzMzLTUuMTAybC0uMjA0LS4wNjZjLTEuODMtLjYtMy42NTgtMS4xMDItNS41NDgtLjE3bC0xLjI0LjYtLjM0Mi4xNi0uODI2Ljk0OGMtMS43ODUgMS43NC0yLjAzMyAzLjg5NS0xLjU2IDYuMTc2LjcyMiAzLjQ3NiA0Ljk2NCA2LjM3IDkuNDcgNC4zMDguMDA1LS4wMDUuMDE3LS4wMDUuMDIyLS4wMSAyLjU2Mi0xLjU2IDMuODY3LTMuOCAzLjU2LTYuODN6bS02LjczOCA2LjA4OGMtMi45MjUtLjAyMi01LjIwNi0yLjM0Ny01LjE4LTUuMjgzLjAyOC0yLjg5MiAyLjQtNS4xODQgNS4zMDUtNS4xNjIgMi45My4wMjIgNS4xNzMgMi4zMyA1LjE1IDUuMjk0LS4wMjIgMi45NDItMi4zMTQgNS4xOC01LjI3OCA1LjE1eiIvPjxwYXRoIGZpbGw9IiNmZTYxNDMiIGQ9Ik0zMC4zNTcgMTIuODdjLTIuNDAyIDEuNTgtMy42MzYgMy43NTItMy4zMzMgNi42ODguMjQyIDIuMzggMS42NDIgMy45NzggMy41NDggNS4yMjggMS4xNDYuMzQyIDIuMjguNTQgMy40ODcuNTIzIDQuMS0uMDYgNy4yMTItNC4yNiA2LjA1LTguMjM2LTEuMS0zLjgxNi01LjE4NS02LjMyMy05LjctNC4yMjMtLjAyMi4wMDUtLjAzMy4wMTctLjA0NC4wMjJ6bTMuMjg0IDExLjE3M2MtMy4wMDMuMDEtNS4zMjctMi4yOTItNS4zMTYtNS4yNzguMDA1LTIuOTMgMi4yOTItNS4yIDUuMjQtNS4yMTcgMi45OC0uMDE3IDUuMzYgMi4zMyA1LjM1IDUuMjYtLjAxIDIuODgtMi4zNzQgNS4yMjMtNS4yNzIgNS4yMzR6Ii8+PHBhdGggZmlsbD0iIzA3MDkwOSIgZD0iTTM4LjQ0IDMxLjI5NGMtLjIwNC0uMjA0LS4zNTMtLjQ4LS42OTQtLjQ4NS0uMDY2IDIuMDUgMS44MDcgNC4yMiAzLjY1MyA0LjIyNiAxLjk1Ni4wMDUgMy42NTgtMS45NCAzLjY1My00LjE3LS43MzguMzgtMS4yMDcgMS4xNjItMi4wNTUgMS4zOTQtMS43LjQ2My0zLjI0NS4zNDctNC41NTYtLjk2NHoiLz48cGF0aCBmaWxsPSIjZmRmY2ZiIiBkPSJNNDUuMjU0IDI4LjkzNmMtMS4yNC45LTIuNDI0IDEuNjg2LTMuOTQ1IDEuNjU4LTEuNDg3LS4wMjgtMi42LS45NTMtMy45MDYtMS44NWwuMzQyIDIuMDY2Yy4zNDIuMDEuNS4yOC42OTQuNDg1IDEuMzA2IDEuMyAyLjg2NSAxLjQyNyA0LjU1Ni45NjQuODQ4LS4yMyAxLjMxNy0xLjAwOCAyLjA1NS0xLjM5NC0uMTk4LS42MzQuNDY4LTEuMi4yMDQtMS45Mjh6Ii8+PHBhdGggZmlsbD0iI2ZlYTc3NyIgZD0iTTM2Ljk1MiA1LjI0Yy0uOTc1LjAxNy0xLjQzMi41NzMtMS41MiAxLjM5NC4wMTcgMS4xMjQuNjY3IDEuNjE0IDEuNTMyIDEuNjAzYTEuNDggMS40OCAwIDAgMCAxLjQ2NS0xLjQ2NWMuMDE3LS44Ni0uNDQ2LTEuNTU0LTEuNDc2LTEuNTMyeiIvPjxwYXRoIGZpbGw9IiNmZGZlZmUiIGQ9Ik0yNi44MDQgMjcuM2ExLjggMS44IDAgMCAwLS4zNTMtMS4yODRjLS40OTYtLjY3OC0uOTctMS4zODgtMS4zNS0yLjEzOC0yLjM0Ny00LjYxNy0yLjctOS40LS45NTMtMTQuMjggMS4xLTMuMDMgMi45NDItNS41MyA1LjQzOC03LjYyLjkyLS43NyAyLjI5Mi0xLjEwMiAyLjc1LTIuNC4wMjItLjA2LjA0NC0uMTI3LjA2LS4xOTMtLjQxMy0uMjctLjc1NS0uNTk1LTEuMzUtLjIzLTMuNTE1IDIuMTUtNi4xMzIgNS4wNC03LjgzNCA4LjgyNi0xLjM0IDIuOTgtMS42MjUgNi4wNzctMS40NyA5LjI2LjE3NiAzLjU5OCAxLjQ1IDYuODA0IDMuNTY0IDkuNy4zOC41MTguODU0Ljg0MyAxLjUuMzc1eiIvPjxwYXRoIGZpbGw9IiNmYmZkZmUiIGQ9Ik0zNS4xNS0xLjYwMmMuMDEtLjAwNS4wMjItLjAxNy4wMzMtLjAyMi0uMDEtLjg5OC0uNS0xLjU5Mi0xLjM0NC0xLjM4OHMtLjgzMiAxLjA0Ny0uNDggMS43ODVsLjA1LjExNmExLjM2IDEuMzYgMCAwIDAgLjEyNy4wODNjLjcyMi40MzUgMS4xMTMtLjI2IDEuNjE0LS41NzN6Ii8+PHBhdGggZmlsbD0iI2ZlZmVmZSIgZD0iTTU0LjMgMTguODk4Yy4wMjItMi45NTgtMi4yMi01LjI2Ny01LjE1LTUuMjk0LTIuOTItLjAyMi01LjI3OCAyLjI3LTUuMzA1IDUuMTYyYTUuMTggNS4xOCAwIDAgMCA1LjE3OSA1LjI4M2MyLjk2NC4wMjIgNS4yNTYtMi4yMTUgNS4yNzgtNS4xNXptLTUuMDIuNTczYy0uOTkyLjAxNy0xLjU3LS41NDUtMS42NTgtMS41Mi0uMDgzLS45LjczMy0xLjc1NyAxLjYzNi0xLjY5Ny45Ny4wNzIgMS41MTUuNjQgMS42MyAxLjY1My0uMTMyLjkwNC0uNTk1IDEuNTQ4LTEuNiAxLjU2NXptLTE1LjcxNy01LjkxN2MtMi45NDcuMDE3LTUuMjI4IDIuMjg2LTUuMjQgNS4yMTctLjAwNSAyLjk4NiAyLjMxNCA1LjMgNS4zMTYgNS4yNzggMi44OTgtLjAxIDUuMjYtMi4zNTIgNS4yNzItNS4yMjguMDA1LTIuOTM2LTIuMzc0LTUuMjgzLTUuMzUtNS4yNjd6bS4wMDUgNS45MTdjLS45OC4wMS0xLjU3LS41NS0xLjY0Ny0xLjUzNy0uMDcyLS45Ljc1LTEuNzUyIDEuNjU4LTEuNjc1Ljk2LjA4MyAxLjUyLjY0IDEuNiAxLjY1My0uMTIuOTMtLjYyOCAxLjU0OC0xLjYyIDEuNTZ6Ii8+PHBhdGggZmlsbD0iIzA5MGIwYiIgZD0iTTQ5LjI2IDE2LjI1NGMtLjkwNC0uMDY2LTEuNzIuNzgyLTEuNjM2IDEuNjk3LjA4OC45OC42NjcgMS41MzcgMS42NTggMS41MiAxLjAwOC0uMDE3IDEuNDc2LS42NiAxLjYtMS41NjUtLjExNi0xLjAxNC0uNjYtMS41OC0xLjYzLTEuNjUzeiIvPjxwYXRoIGZpbGw9IiMwOTBjMGMiIGQ9Ik0zMy41OCAxNi4yNmMtLjktLjA3Ny0xLjczLjc2Ni0xLjY1OCAxLjY3NS4wNzcuOTg2LjY2NyAxLjU0OCAxLjY0NyAxLjUzNy45OTItLjAxIDEuNS0uNjI4IDEuNjItMS41Ni0uMDk0LTEuMDItLjY1Ni0xLjU3Ni0xLjYtMS42NTN6Ii8+PC9zdmc+;movable=0;resizable=0;rotatable=0;deletable=0;editable=0;locked=1;connectable=0;" vertex="1" parent="uSj3emTWA3s2GXRi0EhX-10">
          <mxGeometry x="45" y="7" width="24" height="24" as="geometry" />
        </mxCell>
        <mxCell id="uSj3emTWA3s2GXRi0EhX-8" value="" style="shape=image;verticalLabelPosition=bottom;labelBackgroundColor=default;verticalAlign=top;aspect=fixed;imageAspect=0;image=data:image/svg+xml,PHN2ZyB4bWxucz0iaHR0cDovL3d3dy53My5vcmcvMjAwMC9zdmciIHZpZXdCb3g9IjAgMCAzMiAzMiIgaGVpZ2h0PSI4MDBweCIgd2lkdGg9IjgwMHB4Ij48dGl0bGU+ZmlsZV90eXBlX2hlbG08L3RpdGxlPjxwYXRoIHN0eWxlPSJmaWxsOiMyNzdhOWYiIGQ9Ik0xNS44MTMsMi4wNzNhLjQyMS40MjEsMCwwLDEsLjQ1MS0uMDE1LDEuMjA2LDEuMjA2LDAsMCwxLC40MzIuNTUzLDQuMzgxLDQuMzgxLDAsMCwxLC4zMjUsMS4zNDksNi4yNjcsNi4yNjcsMCwwLDEtLjE2OSwyLjIsMTAuMDI3LDEwLjAyNywwLDAsMSw0LjU1MywxLjYsNS45LDUuOSwwLDAsMSwuOTQ1LTEuNyw0LjU4NCw0LjU4NCwwLDAsMSwxLjI4My0xLjE3Ny45MzUuOTM1LDAsMCwxLC43NDMtLjE0LjU3NS41NzUsMCwwLDEsLjI4OS41NzMsMy4yMjgsMy4yMjgsMCwwLDEtLjM2OCwxLjMsNi4xNDksNi4xNDksMCwwLDEtMS42NjMsMi4xLDEwLjEzNiwxMC4xMzYsMCwwLDEsMS44MjUsMi4yMDhsLTEuMzY5LjgzMmE4LjQyMSw4LjQyMSwwLDAsMC0xNC4yNjktLjJsLTEuMzQ1LS44NjlBMTAuMTU2LDEwLjE1NiwwLDAsMSw5LjMwOCw4LjU3OCw2LjMzMyw2LjMzMywwLDAsMSw3Ljg3Niw2LjczMWEzLjQ4NiwzLjQ4NiwwLDAsMS0uNDI3LTEuMzguNjM5LjYzOSwwLDAsMSwuMjMyLS41ODcuNzMxLjczMSwwLDAsMSwuNjUuMDM4LDMuNjg4LDMuNjg4LDAsMCwxLDEuMTIzLjg4NSw2LjMzLDYuMzMsMCwwLDEsMS4yLDEuOSwxMC4wMzUsMTAuMDM1LDAsMCwxLDQuNTkxLTEuNDYsNi4zMTgsNi4zMTgsMCwwLDEtLjE2MS0yLjE2MSw0LjQ1OSw0LjQ1OSwwLDAsMSwuMzEzLTEuMzI5QTEuMjg3LDEuMjg3LDAsMCwxLDE1LjgxMywyLjA3M1oiLz48cGF0aCBzdHlsZT0iZmlsbDojMjc3YTlmIiBkPSJNMi41NDksMTIuNkg0LjQ3N3EwLDEuMzU3LDAsMi43MTRINi42NTJxMC0xLjM1NiwwLTIuNzEzSDguNTgxcTAsMy42NDQsMCw3LjI4OEg2LjY1MnEwLTEuNDQ3LDAtMi44OTJINC40NzdxMCwxLjQ0NywwLDIuODkzSDIuNTQ5WiIvPjxwYXRoIHN0eWxlPSJmaWxsOiMyNzdhOWYiIGQ9Ik0xMC4xNTMsMTIuNmg0LjcwOXYxLjYxNEgxMi4wODJ2MS4xNDRoMi4zNzdxMCwuODA3LDAsMS42MTRIMTIuMDgydjEuM2gyLjg5MnEwLC44MDcsMCwxLjYxNEgxMC4xNTNaIi8+PHBhdGggc3R5bGU9ImZpbGw6IzI3N2E5ZiIgZD0iTTE2LjQxNiwxMi42aDEuOTI4djUuNjczSDIxLjFxMCwuODA3LDAsMS42MTRIMTYuNDE2WiIvPjxwYXRoIHN0eWxlPSJmaWxsOiMyNzdhOWYiIGQ9Ik0yMi4zNjYsMTIuNmgyLjA2M3EuNDgyLDEuMzA3Ljk2MywyLjYxNWMuMjEyLjU0NC4zNDksMS4xMTEuNTI2LDEuNjY2YS4zOTIuMzkyLDAsMCwwLC4wNzgtLjE2Yy4xMTItLjM5MS4yMjgtLjc4Mi4zNTEtMS4xNzFxLjUxOS0xLjQ3NSwxLjA0MS0yLjk0OWgyLjA2NHY3LjI4OEgyNy43YTMzLjA1NCwzMy4wNTQsMCwwLDEsLjA4LTMuMzU2Yy4wNDQtLjQ3NS4xMjItLjk0Ny4xNjItMS40MjNhLjYxNy42MTcsMCwwLDAtLjExMS4yMjdjLS40NDUsMS4zMzItLjkzOCwyLjY0OC0xLjQzNiwzLjk2MS0uMzQyLS4wMDctLjY4NCwwLTEuMDI2LDBxLS40NDItMS4xODctLjg4My0yLjM3NGMtLjE3Mi0uNS0uMzM4LTEuMDEtLjUwNi0xLjUxNWEuNzQ2Ljc0NiwwLDAsMC0uMTMxLS4yOTIsMjUuOTcsMjUuOTcsMCwwLDEsLjI0MiwyLjc2MXEwLDEuMDA3LDAsMi4wMTRIMjIuMzY2WiIvPjxwYXRoIHN0eWxlPSJmaWxsOiMyNzdhOWYiIGQ9Ik03LjY2NywyMS44cS42NTYtLjQ1OCwxLjMxNC0uOTE1YTguNDIyLDguNDIyLDAsMCwwLDEzLjgzMy0uMDEybDEuMzE2LjkxMmExMC4yNjEsMTAuMjYxLDAsMCwxLTEuMzc5LDEuNiw2LjI3Miw2LjI3MiwwLDAsMSwxLjQ4NiwxLjg5MiwzLjQ5MSwzLjQ5MSwwLDAsMSwuNDI3LDEuMzc3LjYyLjYyLDAsMCwxLS4yNi42Ljg3Ljg3LDAsMCwxLS43NDMtLjExMiw0LjQxMiw0LjQxMiwwLDAsMS0xLjI1Mi0xLjExNyw2LjI0OCw2LjI0OCwwLDAsMS0uOTQ5LTEuNjE2QTkuOTY3LDkuOTY3LDAsMCwxLDE2LjksMjYuMDQxYTYuMDg2LDYuMDg2LDAsMCwxLC4xNDQsMS41LDUuMDE2LDUuMDE2LDAsMCwxLS4zMDgsMS43NDgsMS4zOCwxLjM4LDAsMCwxLS40NDYuNjM1LjQzMS40MzEsMCwwLDEtLjUwNy0uMDE3LDEuNTczLDEuNTczLDAsMCwxLS40NjctLjczNiw1Ljc2NCw1Ljc2NCwwLDAsMS0uMjUxLTIuMjEyLDUuNjU5LDUuNjU5LDAsMCwxLC4xMjQtLjg5MiwxMC4wMjQsMTAuMDI0LDAsMCwxLTQuNjA2LTEuNDk0LDYuNDQsNi40NCwwLDAsMS0xLjM0OCwxLjk2NCwyLjk0MiwyLjk0MiwwLDAsMS0xLjA1Ny43MTYuNTMxLjUzMSwwLDAsMS0uNjE0LS4xMjQsMS4xMzksMS4xMzksMCwwLDEtLjA2OC0uODY0QTUuNDQ5LDUuNDQ5LDAsMCwxLDguNSwyNC4yODJhNi4wNDQsNi4wNDQsMCwwLDEsLjY4OC0uNzU5QTEwLjQyMywxMC40MjMsMCwwLDEsNy42NjcsMjEuOFoiLz48L3N2Zz4=;movable=0;resizable=0;rotatable=0;deletable=0;editable=0;locked=1;connectable=0;" vertex="1" parent="uSj3emTWA3s2GXRi0EhX-10">
          <mxGeometry x="5" y="4" width="30" height="30" as="geometry" />
        </mxCell>
        <mxCell id="uSj3emTWA3s2GXRi0EhX-11" value="" style="group;movable=0;resizable=0;rotatable=0;deletable=0;editable=0;locked=1;connectable=0;" vertex="1" connectable="0" parent="1">
          <mxGeometry x="676.5" y="170.25" width="75" height="38" as="geometry" />
        </mxCell>
        <mxCell id="uSj3emTWA3s2GXRi0EhX-12" value="" style="rounded=0;whiteSpace=wrap;html=1;strokeColor=#45799c;movable=0;resizable=0;rotatable=0;deletable=0;editable=0;locked=1;connectable=0;" vertex="1" parent="uSj3emTWA3s2GXRi0EhX-11">
          <mxGeometry width="75" height="38" as="geometry" />
        </mxCell>
        <mxCell id="uSj3emTWA3s2GXRi0EhX-14" value="" style="shape=image;verticalLabelPosition=bottom;labelBackgroundColor=default;verticalAlign=top;aspect=fixed;imageAspect=0;image=data:image/svg+xml,PHN2ZyB4bWxucz0iaHR0cDovL3d3dy53My5vcmcvMjAwMC9zdmciIHZpZXdCb3g9IjAgMCAzMiAzMiIgaGVpZ2h0PSI4MDBweCIgd2lkdGg9IjgwMHB4Ij48dGl0bGU+ZmlsZV90eXBlX2hlbG08L3RpdGxlPjxwYXRoIHN0eWxlPSJmaWxsOiMyNzdhOWYiIGQ9Ik0xNS44MTMsMi4wNzNhLjQyMS40MjEsMCwwLDEsLjQ1MS0uMDE1LDEuMjA2LDEuMjA2LDAsMCwxLC40MzIuNTUzLDQuMzgxLDQuMzgxLDAsMCwxLC4zMjUsMS4zNDksNi4yNjcsNi4yNjcsMCwwLDEtLjE2OSwyLjIsMTAuMDI3LDEwLjAyNywwLDAsMSw0LjU1MywxLjYsNS45LDUuOSwwLDAsMSwuOTQ1LTEuNyw0LjU4NCw0LjU4NCwwLDAsMSwxLjI4My0xLjE3Ny45MzUuOTM1LDAsMCwxLC43NDMtLjE0LjU3NS41NzUsMCwwLDEsLjI4OS41NzMsMy4yMjgsMy4yMjgsMCwwLDEtLjM2OCwxLjMsNi4xNDksNi4xNDksMCwwLDEtMS42NjMsMi4xLDEwLjEzNiwxMC4xMzYsMCwwLDEsMS44MjUsMi4yMDhsLTEuMzY5LjgzMmE4LjQyMSw4LjQyMSwwLDAsMC0xNC4yNjktLjJsLTEuMzQ1LS44NjlBMTAuMTU2LDEwLjE1NiwwLDAsMSw5LjMwOCw4LjU3OCw2LjMzMyw2LjMzMywwLDAsMSw3Ljg3Niw2LjczMWEzLjQ4NiwzLjQ4NiwwLDAsMS0uNDI3LTEuMzguNjM5LjYzOSwwLDAsMSwuMjMyLS41ODcuNzMxLjczMSwwLDAsMSwuNjUuMDM4LDMuNjg4LDMuNjg4LDAsMCwxLDEuMTIzLjg4NSw2LjMzLDYuMzMsMCwwLDEsMS4yLDEuOSwxMC4wMzUsMTAuMDM1LDAsMCwxLDQuNTkxLTEuNDYsNi4zMTgsNi4zMTgsMCwwLDEtLjE2MS0yLjE2MSw0LjQ1OSw0LjQ1OSwwLDAsMSwuMzEzLTEuMzI5QTEuMjg3LDEuMjg3LDAsMCwxLDE1LjgxMywyLjA3M1oiLz48cGF0aCBzdHlsZT0iZmlsbDojMjc3YTlmIiBkPSJNMi41NDksMTIuNkg0LjQ3N3EwLDEuMzU3LDAsMi43MTRINi42NTJxMC0xLjM1NiwwLTIuNzEzSDguNTgxcTAsMy42NDQsMCw3LjI4OEg2LjY1MnEwLTEuNDQ3LDAtMi44OTJINC40NzdxMCwxLjQ0NywwLDIuODkzSDIuNTQ5WiIvPjxwYXRoIHN0eWxlPSJmaWxsOiMyNzdhOWYiIGQ9Ik0xMC4xNTMsMTIuNmg0LjcwOXYxLjYxNEgxMi4wODJ2MS4xNDRoMi4zNzdxMCwuODA3LDAsMS42MTRIMTIuMDgydjEuM2gyLjg5MnEwLC44MDcsMCwxLjYxNEgxMC4xNTNaIi8+PHBhdGggc3R5bGU9ImZpbGw6IzI3N2E5ZiIgZD0iTTE2LjQxNiwxMi42aDEuOTI4djUuNjczSDIxLjFxMCwuODA3LDAsMS42MTRIMTYuNDE2WiIvPjxwYXRoIHN0eWxlPSJmaWxsOiMyNzdhOWYiIGQ9Ik0yMi4zNjYsMTIuNmgyLjA2M3EuNDgyLDEuMzA3Ljk2MywyLjYxNWMuMjEyLjU0NC4zNDksMS4xMTEuNTI2LDEuNjY2YS4zOTIuMzkyLDAsMCwwLC4wNzgtLjE2Yy4xMTItLjM5MS4yMjgtLjc4Mi4zNTEtMS4xNzFxLjUxOS0xLjQ3NSwxLjA0MS0yLjk0OWgyLjA2NHY3LjI4OEgyNy43YTMzLjA1NCwzMy4wNTQsMCwwLDEsLjA4LTMuMzU2Yy4wNDQtLjQ3NS4xMjItLjk0Ny4xNjItMS40MjNhLjYxNy42MTcsMCwwLDAtLjExMS4yMjdjLS40NDUsMS4zMzItLjkzOCwyLjY0OC0xLjQzNiwzLjk2MS0uMzQyLS4wMDctLjY4NCwwLTEuMDI2LDBxLS40NDItMS4xODctLjg4My0yLjM3NGMtLjE3Mi0uNS0uMzM4LTEuMDEtLjUwNi0xLjUxNWEuNzQ2Ljc0NiwwLDAsMC0uMTMxLS4yOTIsMjUuOTcsMjUuOTcsMCwwLDEsLjI0MiwyLjc2MXEwLDEuMDA3LDAsMi4wMTRIMjIuMzY2WiIvPjxwYXRoIHN0eWxlPSJmaWxsOiMyNzdhOWYiIGQ9Ik03LjY2NywyMS44cS42NTYtLjQ1OCwxLjMxNC0uOTE1YTguNDIyLDguNDIyLDAsMCwwLDEzLjgzMy0uMDEybDEuMzE2LjkxMmExMC4yNjEsMTAuMjYxLDAsMCwxLTEuMzc5LDEuNiw2LjI3Miw2LjI3MiwwLDAsMSwxLjQ4NiwxLjg5MiwzLjQ5MSwzLjQ5MSwwLDAsMSwuNDI3LDEuMzc3LjYyLjYyLDAsMCwxLS4yNi42Ljg3Ljg3LDAsMCwxLS43NDMtLjExMiw0LjQxMiw0LjQxMiwwLDAsMS0xLjI1Mi0xLjExNyw2LjI0OCw2LjI0OCwwLDAsMS0uOTQ5LTEuNjE2QTkuOTY3LDkuOTY3LDAsMCwxLDE2LjksMjYuMDQxYTYuMDg2LDYuMDg2LDAsMCwxLC4xNDQsMS41LDUuMDE2LDUuMDE2LDAsMCwxLS4zMDgsMS43NDgsMS4zOCwxLjM4LDAsMCwxLS40NDYuNjM1LjQzMS40MzEsMCwwLDEtLjUwNy0uMDE3LDEuNTczLDEuNTczLDAsMCwxLS40NjctLjczNiw1Ljc2NCw1Ljc2NCwwLDAsMS0uMjUxLTIuMjEyLDUuNjU5LDUuNjU5LDAsMCwxLC4xMjQtLjg5MiwxMC4wMjQsMTAuMDI0LDAsMCwxLTQuNjA2LTEuNDk0LDYuNDQsNi40NCwwLDAsMS0xLjM0OCwxLjk2NCwyLjk0MiwyLjk0MiwwLDAsMS0xLjA1Ny43MTYuNTMxLjUzMSwwLDAsMS0uNjE0LS4xMjQsMS4xMzksMS4xMzksMCwwLDEtLjA2OC0uODY0QTUuNDQ5LDUuNDQ5LDAsMCwxLDguNSwyNC4yODJhNi4wNDQsNi4wNDQsMCwwLDEsLjY4OC0uNzU5QTEwLjQyMywxMC40MjMsMCwwLDEsNy42NjcsMjEuOFoiLz48L3N2Zz4=;movable=0;resizable=0;rotatable=0;deletable=0;editable=0;locked=1;connectable=0;" vertex="1" parent="uSj3emTWA3s2GXRi0EhX-11">
          <mxGeometry x="5" y="4" width="30" height="30" as="geometry" />
        </mxCell>
        <mxCell id="uSj3emTWA3s2GXRi0EhX-15" value="" style="shape=image;verticalLabelPosition=bottom;labelBackgroundColor=default;verticalAlign=top;aspect=fixed;imageAspect=0;image=data:image/svg+xml,PHN2ZyB4bWxucz0iaHR0cDovL3d3dy53My5vcmcvMjAwMC9zdmciIHZpZXdCb3g9IjAgMCAzMiAzMiIgaGVpZ2h0PSI2NCIgd2lkdGg9IjY0Ij48ZGVmcz48bGluZWFyR3JhZGllbnQgZ3JhZGllbnRVbml0cz0idXNlclNwYWNlT25Vc2UiIHkyPSI1NzMuNzMyIiB4Mj0iNjY1LjI1NSIgeTE9IjU3NC44OTUiIHgxPSI4MTEuNTI3IiBpZD0iQSI+PHN0b3Agc3RvcC1jb2xvcj0iIzM2NmE5NiIgb2Zmc2V0PSIwIi8+PHN0b3Agc3RvcC1jb2xvcj0iIzM2NzliMCIgb2Zmc2V0PSIxIi8+PC9saW5lYXJHcmFkaWVudD48bGluZWFyR3JhZGllbnQgZ3JhZGllbnRVbml0cz0idXNlclNwYWNlT25Vc2UiIHkyPSI2NDIuMTc2IiB4Mj0iNTczLjI3NiIgeTE9IjY0Mi4xNzYiIHgxPSI4NjIuODI0IiBpZD0iQiI+PHN0b3Agc3RvcC1jb2xvcj0iI2ZmYzgzNiIgb2Zmc2V0PSIwIi8+PHN0b3Agc3RvcC1jb2xvcj0iI2ZmZTg3MyIgb2Zmc2V0PSIxIi8+PC9saW5lYXJHcmFkaWVudD48L2RlZnM+PGcgdHJhbnNmb3JtPSJtYXRyaXgoLjE2MTcgMCAwIC4xNTgwODkgLTEwNy41Mzc2NCAtODEuNjYxODcpIj48cGF0aCBmaWxsPSJ1cmwoI0EpIiBkPSJNNzE2LjI1NSA1NDQuNDg3YzAtMTMuNjIzIDMuNjUzLTIxLjAzNCAyMy44MjItMjQuNTYzIDEzLjY5My0yLjQgMzEuMjUtMi43IDQ3LjYyNyAwIDEyLjkzNSAyLjEzNSAyMy44MjIgMTEuNzcgMjMuODIyIDI0LjU2M3Y0NC45NDVjMCAxMy4xODItMTAuNTcgMjMuOTgtMjMuODIyIDIzLjk4aC00Ny42MjdjLTE2LjE2NCAwLTI5Ljc4NyAxMy43ODItMjkuNzg3IDI5LjM2M3YyMS41NjRoLTE2LjM3NmMtMTMuODUyIDAtMjEuOTE3LTkuOTg4LTI1LjMwNS0yMy45NjQtNC41Ny0xOC43NzYtNC4zNzYtMjkuOTYzIDAtNDcuOTQ1IDMuNzk0LTE1LjY4NyAxNS45MTctMjMuOTY0IDI5Ljc3LTIzLjk2NGg2NS41MnYtNmgtNDcuNjQ1di0xNy45OHoiLz48cGF0aCBmaWxsPSJ1cmwoI0IpIiBkPSJNODExLjUyNyA2ODguMzJjMCAxMy42MjMtMTEuODIzIDIwLjUyMy0yMy44MjIgMjMuOTY0LTE4LjA1MiA1LjE4OC0zMi41NCA0LjM5NC00Ny42MjcgMC0xMi42LTMuNjctMjMuODIyLTExLjE3LTIzLjgyMi0yMy45NjR2LTQ0Ljk0NWMwLTEyLjkzNSAxMC43ODItMjMuOTggMjMuODIyLTIzLjk4aDQ3LjYyN2MxNS44NjQgMCAyOS43ODctMTMuNzEgMjkuNzg3LTI5Ljk2M3YtMjAuOTY0aDE3Ljg1OGMxMy44NyAwIDIwLjQgMTAuMzA1IDIzLjgyMiAyMy45NjQgNC43NjQgMTguOTcgNC45NzYgMzMuMTU3IDAgNDcuOTQ1LTQuODE3IDE0LjM2NC05Ljk3IDIzLjk2NC0yMy44MjIgMjMuOTY0SDc2My45djZoNDcuNjI3djE3Ljk4eiIvPjxwYXRoIGZpbGw9IiNmZmYiIGQ9Ik03MjguMTY2IDU0MS41MDVjMC00Ljk3NiAzLjk4OC05IDguOTMtOSA0LjkyMyAwIDguOTMgNC4wMjMgOC45MyA5IDAgNC45Ni00LjAwNiA4Ljk4Mi04LjkzIDguOTgyLTQuOTQgMC04LjkzLTQuMDIzLTguOTMtOC45ODJ6bTUzLjU5IDE0OS43OThjMC00Ljk2IDQuMDA2LTguOTgyIDguOTMtOC45ODIgNC45NCAwIDguOTMgNC4wMjMgOC45MyA4Ljk4MiAwIDQuOTc2LTMuOTg4IDktOC45MyA5LTQuOTIzIDAtOC45My00LjAyMy04LjkzLTl6Ii8+PC9nPjwvc3ZnPg==;movable=0;resizable=0;rotatable=0;deletable=0;editable=0;locked=1;connectable=0;" vertex="1" parent="uSj3emTWA3s2GXRi0EhX-11">
          <mxGeometry x="45" y="7" width="24" height="24" as="geometry" />
        </mxCell>
        <mxCell id="uSj3emTWA3s2GXRi0EhX-16" value="" style="endArrow=classic;startArrow=classic;html=1;rounded=0;entryX=0;entryY=0.5;entryDx=0;entryDy=0;exitX=1;exitY=0.5;exitDx=0;exitDy=0;movable=0;resizable=0;rotatable=0;deletable=0;editable=0;locked=1;connectable=0;" edge="1" parent="1" source="uSj3emTWA3s2GXRi0EhX-9" target="uSj3emTWA3s2GXRi0EhX-12">
          <mxGeometry width="50" height="50" relative="1" as="geometry">
            <mxPoint x="574.5" y="221.25" as="sourcePoint" />
            <mxPoint x="624.5" y="171.25" as="targetPoint" />
          </mxGeometry>
        </mxCell>
        <mxCell id="uSj3emTWA3s2GXRi0EhX-17" value="&lt;font style=&quot;font-size: 8px;&quot;&gt;sync&lt;/font&gt;" style="edgeLabel;html=1;align=center;verticalAlign=middle;resizable=0;points=[];movable=0;rotatable=0;deletable=0;editable=0;locked=1;connectable=0;" vertex="1" connectable="0" parent="uSj3emTWA3s2GXRi0EhX-16">
          <mxGeometry x="-0.0401" relative="1" as="geometry">
            <mxPoint y="-2" as="offset" />
          </mxGeometry>
        </mxCell>
      </root>
    </mxGraphModel>
  </diagram>
</mxfile>
